<svg id="Layer_1" data-name="Layer 1" xmlns="http://www.w3.org/2000/svg" xmlns:xlink="http://www.w3.org/1999/xlink" width="828.401" height="464.9805" viewBox="0 0 828.401 464.9805">
  <defs>
    <style>
      .cls-1 {
        fill: #e4efff;
      }

      .cls-2 {
        fill: #b0bfde;
      }

      .cls-3 {
        fill: #d1dbea;
      }

      .cls-4 {
        fill: #476c8e;
      }

      .cls-5 {
        fill: #0c1153;
      }

      .cls-6 {
        fill: #e1eefe;
      }

      .cls-7 {
        fill: #ad5c49;
      }

      .cls-8 {
        fill: #ffc40e;
      }

      .cls-9 {
        fill: #3bb6d5;
      }

      .cls-10 {
        fill: #c9e0f5;
      }

      .cls-11 {
        fill: #a5cbef;
      }

      .cls-12 {
        fill: #b7d5f2;
      }

      .cls-13 {
        fill: #6e84b5;
      }

      .cls-14 {
        fill: #7d97cb;
      }

      .cls-15 {
        fill: #4a65a3;
      }

      .cls-16 {
        fill: #d1e1f2;
      }

      .cls-17, .cls-18 {
        fill: #fff;
      }

      .cls-18 {
        stroke: #e5e5e5;
        stroke-miterlimit: 10;
        stroke-width: 0.5987px;
      }

      .cls-19 {
        fill: #00abfc;
      }

      .cls-20 {
        fill: #1d2b38;
      }

      .cls-21 {
        fill: #1e2c39;
      }

      .cls-22 {
        fill: #ffc4ad;
      }

      .cls-23 {
        fill: url(#linear-gradient);
      }

      .cls-24 {
        fill: #f16a54;
      }

      .cls-25 {
        fill: #40627c;
      }

      .cls-26 {
        fill: #456c84;
      }

      .cls-27 {
        fill: #3492a8;
      }

      .cls-28 {
        fill: #0c6;
      }
    </style>
    <linearGradient id="linear-gradient" x1="-2.902" y1="755.983" x2="-74.1847" y2="813.7797" gradientTransform="translate(1204.0577 -352.0384)" gradientUnits="userSpaceOnUse">
      <stop offset="0" stop-color="#d00000"/>
      <stop offset="1" stop-color="#ff9494"/>
    </linearGradient>
  </defs>
  <title>CM_Illustration</title>
  <path class="cls-1" d="M769.2851,631.032c-2.1162,7.1744-9.7343,16.8672-24.3515,40.5191-10.4366,16.8808-39.5644,29.3506-46.61,19.7886-3.5968-4.8785,2.6182-9.5455.6562-14.7749-2.5547-6.793-11.1611-3.1436-14.92.5849-26.791,26.6069-71.2275,32.45-70.0792,6.4238.6154-14.0683-22.8007-18.1679-28.9823-11.0263-13.1133,15.1523-33.23,18.226-38.8789,1.9326-5.5489-16.0117-16.127-24.9185-25.3008-21.0073-9.1758,3.9077-16.7364,19.227-35.0918,3.4018-7.2324-6.2344-6.0381-23.497,8.2852-29.7627,8.166-3.5742,39.5761-7.7861,13.2129-21.63-27.1778-14.2685-11.26-27.1953,4.7206-23.2773,5.9571,1.457,62.3438,16.8364,49.0821,4.3174-15.6523-14.7813-3.8789-22.6572,23.1582-12.1729,12.2772,4.7559,37.3711,20.7051,38.5928,13.09,1.2217-7.6114,5.97-13.874,25.12-9.5449C731.3028,596.7435,768.5108,633.6624,769.2851,631.032Z" transform="translate(-481.3885 -367.2136)"/>
  <g>
    <path class="cls-2" d="M638.754,664.9524c.5722-2.5576.456-24.4316,14.0926-32.3056,10.8233-6.2451,6.6574-11.0528,1.7228-13.6651-4.9346-2.6064-10.7608-2.873-7.9492-9.3066,9.2588-21.1748,2.6865-43.2695-9.045-32.8-6.3408,5.6582-12.2314-2.91-10.0107-8.3223,4.6982-11.4834,2.664-21.3686-5.7676-17.5717-8.2929,3.7338-14.1777,2.5688-13.958-2.9019.2237-5.4717,5.95-14.6143-4.4472-16.4961-4.0909-.74-11.8,6.3887-12.22,14.99-.24,4.9043,3.2041,20.1206-7.6543,14.0079-11.1914-6.295-11.8574,4.1474-7.3281,9.5693,1.69,2.0176,15.8477,21.9326,7.8438,20.99-9.4532-1.1133-11.0469,7.0049-1.6193,14.6944,4.2813,3.4863,15.8829,8.2368,12.6056,11.6845-3.2833,3.4453-7.4943,16.6016.8652,17.9375C619.6133,639.2474,639.9434,659.6419,638.754,664.9524Z" transform="translate(-481.3885 -367.2136)"/>
    <path class="cls-3" d="M611.9747,611.8323c-5.1016-4.3847-32.0039-14.062-32.2754-14.1592l.8174-2.2792c1.125.4033,27.5986,9.9287,33.0361,14.6025Z" transform="translate(-481.3885 -367.2136)"/>
    <path class="cls-3" d="M628.1719,643.4949c-9.3017-11.0962-31.9668-16.437-32.1944-16.49l.545-2.3594c.9629.2227,23.6875,5.5825,33.5049,17.2935Z" transform="translate(-481.3885 -367.2136)"/>
  </g>
  <g>
    <path class="cls-3" d="M622.5878,619.1351A213.6371,213.6371,0,0,1,581.09,519.9485c-3.791-27-.918-45.56-.8857-45.7441l1.6571.2656c-.03.1817-2.8632,18.544.8995,45.3145a212.0419,212.0419,0,0,0,41.163,98.3359Z" transform="translate(-481.3885 -367.2136)"/>
    <path class="cls-3" d="M580.502,476.5579a18.0227,18.0227,0,0,1-1.31-10.1562c.3808-1.9034,2.4707-4.9082,4.24-4.5557,1.7695.3506,2.7227,3.0576,2.1708,5.8291A18.0539,18.0539,0,0,1,580.502,476.5579Z" transform="translate(-481.3885 -367.2136)"/>
    <path class="cls-3" d="M580.1856,485.8538a16.8963,16.8963,0,0,1,4.34-8.1826c1.258-1.2354,4.3244-2.4658,5.4083-1.35,1.084,1.1094.3633,3.584-1.4687,5.3779A16.96,16.96,0,0,1,580.1856,485.8538Z" transform="translate(-481.3885 -367.2136)"/>
    <path class="cls-3" d="M581.038,501.6351a12.7759,12.7759,0,0,1,4.4328-6.7022c1.2265-.8564,4.0986-1.2539,5.0332.0791.9316,1.334.1288,3.51-1.65,4.7539A12.76,12.76,0,0,1,581.038,501.6351Z" transform="translate(-481.3885 -367.2136)"/>
    <path class="cls-3" d="M580.7373,485.3021a12.6467,12.6467,0,0,1-7.8154-1.6265c-1.2422-.82-2.6621-3.3208-1.7754-4.6743.8887-1.3487,3.19-1.4121,4.9942-.2237A12.6956,12.6956,0,0,1,580.7373,485.3021Z" transform="translate(-481.3885 -367.2136)"/>
    <path class="cls-3" d="M600.6015,582.1644a15.0049,15.0049,0,0,1-8.4355,1.3769c-1.6015-.2676-4.16-1.9321-3.91-3.4248.2471-1.4863,2.4785-2.3594,4.8027-1.9746A15.024,15.024,0,0,1,600.6015,582.1644Z" transform="translate(-481.3885 -367.2136)"/>
    <path class="cls-3" d="M580.0518,501.64a16.8943,16.8943,0,0,1-9.2627-2.4355c-1.5156-1-3.3887-3.8652-2.4629-5.2725.9278-1.4,3.6055-1.2754,5.8106.1748A16.8954,16.8954,0,0,1,580.0518,501.64Z" transform="translate(-481.3885 -367.2136)"/>
    <path class="cls-3" d="M581.1153,518.469S576.16,519.54,572.5,517.13c-1.3223-.8711-2.73-3.7246-1.6348-5.39,1.0937-1.667,3.668-1.9072,5.5957-.6406C580.1231,513.5081,581.1153,518.469,581.1153,518.469Z" transform="translate(-481.3885 -367.2136)"/>
    <path class="cls-3" d="M582.3243,518.0276s.25-4.9834,3.4785-8.1162c1.1719-1.1377,4.2519-2.0078,5.5585-.6562,1.3125,1.3486.8848,3.8877-.8184,5.5381C587.3126,517.9251,582.3243,518.0276,582.3243,518.0276Z" transform="translate(-481.3885 -367.2136)"/>
    <path class="cls-3" d="M601.32,582.57a13.5958,13.5958,0,0,1,.2012-8.5371c.5967-1.6552,2.87-4.3965,4.4043-4.2544,1.537.1421,2.0235,2.3648,1.1563,4.77A21.6492,21.6492,0,0,1,601.32,582.57Z" transform="translate(-481.3885 -367.2136)"/>
    <path class="cls-3" d="M588.3936,550.24a11.5023,11.5023,0,0,1,4.6172-5.4287c1.3008-.8413,4.3975-1.7441,5.44-1.0649,1.043.6772.2305,2.2959-1.6622,3.5195A23.8113,23.8113,0,0,1,588.3936,550.24Z" transform="translate(-481.3885 -367.2136)"/>
    <path class="cls-3" d="M584.09,535.5784a9.808,9.808,0,0,1-6.0645-2.2187c-1.0849-.8653-2.6718-3.2891-2.32-4.4414.3575-1.1582,2.0235-.9981,3.6035.2548A19.45,19.45,0,0,1,584.09,535.5784Z" transform="translate(-481.3885 -367.2136)"/>
    <path class="cls-3" d="M594.8965,567.3675s-1.5489-5.0547-.5-8.8247c.3788-1.3648,2.1075-2.8277,3.4278-1.7271,1.3232,1.1021,1.916,3.7344,1.3623,5.72A7.1875,7.1875,0,0,1,594.8965,567.3675Z" transform="translate(-481.3885 -367.2136)"/>
    <path class="cls-3" d="M588.9376,550.721s-6.09,1.0088-10.7931-.6621c-1.703-.6055-3.6288-2.7031-2.371-4.0068,1.2559-1.2989,4.4393-1.5879,6.9189-.7076A10.7621,10.7621,0,0,1,588.9376,550.721Z" transform="translate(-481.3885 -367.2136)"/>
    <path class="cls-3" d="M594.5078,568.2679s-5.7734.9438-9.9649-.7285c-1.5184-.6036-3.078-2.6768-1.7694-3.9434,1.31-1.2656,4.3057-1.52,6.5116-.6436A8.88,8.88,0,0,1,594.5078,568.2679Z" transform="translate(-481.3885 -367.2136)"/>
    <path class="cls-3" d="M608.334,596.2425a11.3343,11.3343,0,0,1,1.1641-7.0322c.6895-1.39,2.9014-3.7486,4.1659-3.7012s1.4073,1.8642.4025,3.8789A23.6506,23.6506,0,0,1,608.334,596.2425Z" transform="translate(-481.3885 -367.2136)"/>
    <path class="cls-3" d="M602.3574,528.471s.4493-4.8955,2.67-8.0879c.81-1.1558,2.8027-2.1221,3.5547-.85.7461,1.2734.33,3.7793-.8438,5.459A8.0245,8.0245,0,0,1,602.3574,528.471Z" transform="translate(-481.3885 -367.2136)"/>
    <path class="cls-3" d="M584.8574,536.473a17.1221,17.1221,0,0,1,3.5-8.3018c1.1524-1.5034,4.1679-3.749,5.419-3.3066,1.2587.4414.81,2.706-.874,4.8906A28.0447,28.0447,0,0,1,584.8574,536.473Z" transform="translate(-481.3885 -367.2136)"/>
  </g>
  <g>
    <path class="cls-4" d="M583.0606,667.8289c18.209,22.4,44.0918,34.22,68.75,33.9634,5.2909-24.084-.9893-51.8389-19.1973-74.2373-18.2071-22.4033-44.09-34.2256-68.748-33.9658C558.5723,617.6741,564.8526,645.4261,583.0606,667.8289Z" transform="translate(-481.3885 -367.2136)"/>
    <g>
      <rect class="cls-5" x="608.7934" y="588.5671" width="1.0947" height="123.1481" transform="translate(-754.9569 162.7155) rotate(-39.102)"/>
      <rect class="cls-5" x="577.9429" y="611.8202" width="19.3485" height="1.0956" transform="translate(-563.1466 766.9064) rotate(-84.1166)"/>
      <rect class="cls-5" x="589.1683" y="625.8783" width="23.845" height="1.0956" transform="translate(-565.0381 792.9262) rotate(-84.1166)"/>
      <rect class="cls-5" x="595.226" y="634.2059" width="39.8664" height="1.0956" transform="translate(-560.6956 814.3944) rotate(-84.1166)"/>
      <rect class="cls-5" x="608.958" y="651.038" width="38.7823" height="1.0956" transform="translate(-565.601 842.6216) rotate(-84.1166)"/>
      <rect class="cls-5" x="629.9107" y="675.882" width="21.5956" height="1.0956" transform="translate(-579.2217 877.2133) rotate(-84.1166)"/>
      <rect class="cls-5" x="574.6084" y="609.5572" width="1.0957" height="19.3482" transform="translate(-581.2138 760.596) rotate(-84.1103)"/>
      <rect class="cls-5" x="582.4707" y="619.8853" width="1.0957" height="30.1696" transform="translate(-589.9112 782.4099) rotate(-84.0995)"/>
      <rect class="cls-5" x="591.9414" y="631.9988" width="1.0957" height="37.7565" transform="translate(-597.2085 806.1405) rotate(-84.1026)"/>
      <rect class="cls-5" x="604.6748" y="647.7253" width="1.0957" height="38.787" transform="translate(-601.8924 833.4431) rotate(-84.1076)"/>
      <rect class="cls-5" x="620.6343" y="667.0327" width="1.0958" height="33.3219" transform="translate(-604.1074 864.1254) rotate(-84.1025)"/>
    </g>
  </g>
  <g>
    <path class="cls-2" d="M593.6738,689.2625s-10.2069,2.3975-14.7578,6.604c-5.621,5.1914-4.9491,12.1-4.9413,13.8682a16.544,16.544,0,0,0,7.2168.5234c1.8964-.2549,7.06-2.0215,9.875-5.8584,2.8163-3.83,3.5429-5.1836,3.6445-7.6929C594.8047,694.3509,593.1133,690.3743,593.6738,689.2625Z" transform="translate(-481.3885 -367.2136)"/>
    <path class="cls-2" d="M582.5987,688.7962s-8.44.5371-13.3584-1.1514c-5.8106-1.997-9.9131-7.5488-9.9131-7.5488a46.3342,46.3342,0,0,0,4.7354.2959c2.4375-.0439,9.3593-2.0371,13.2694-.0562C579.836,681.6087,582.003,682.8753,582.5987,688.7962Z" transform="translate(-481.3885 -367.2136)"/>
    <path class="cls-2" d="M616.2188,691.4036s-5.5752,2.7676-8.7433,6.2793c-3.1669,3.5195-6.3934,9.2861-4.3231,17.8086a12.475,12.475,0,0,1,3.1836-2.7183c1.7266-.9428,7.8241-3.2514,10.7363-8.1186a10.0976,10.0976,0,0,0,1.7617-6.64C618.7481,695.8812,615.9571,692.2894,616.2188,691.4036Z" transform="translate(-481.3885 -367.2136)"/>
    <path class="cls-2" d="M597.3047,687.0945a3.7655,3.7655,0,0,0-1.5919-1.8247c-2.618-1.3188-4.3241-1.29-5.7792-3.0962a19.7056,19.7056,0,0,1-2.5333-5.4077s5.8771-.56,8.0558,2.1016C597.586,681.47,598.1885,682.847,597.3047,687.0945Z" transform="translate(-481.3885 -367.2136)"/>
    <path class="cls-2" d="M566.3711,694.5662s-3.1484-1.125-7.4843,1.2974c-4.333,2.4179-5.004,4.3056-4.9307,4.7178.0693.4072,1.1836.6582,3.9326.3066,2.33-.2974,4.0655-.5991,6.21-2.542A6.3219,6.3219,0,0,0,566.3711,694.5662Z" transform="translate(-481.3885 -367.2136)"/>
    <path class="cls-2" d="M618.2794,689.9837a98.4773,98.4773,0,0,1,13.07,3.9434,5.505,5.505,0,0,0-.4249.9628,97.4791,97.4791,0,0,0-12.8779-3.8813c-12.8233-2.9077-32.3243-4.4282-52.3672,4.8306l-.4394-.9541C585.5537,685.5,605.2969,687.04,618.2794,689.9837Z" transform="translate(-481.3885 -367.2136)"/>
  </g>
  <g>
    <rect class="cls-6" x="147.6291" y="9.8619" width="533.8321" height="336.8193"/>
    <rect class="cls-3" x="147.6291" y="9.8619" width="533.8321" height="17.9893"/>
    <path class="cls-7" d="M642.211,386.07a3.5987,3.5987,0,1,1-3.6016-3.5923A3.6071,3.6071,0,0,1,642.211,386.07Z" transform="translate(-481.3885 -367.2136)"/>
    <path class="cls-8" d="M653.6,386.07a3.5977,3.5977,0,1,1-3.5977-3.5923A3.6,3.6,0,0,1,653.6,386.07Z" transform="translate(-481.3885 -367.2136)"/>
    <path class="cls-9" d="M664.99,386.07a3.5972,3.5972,0,1,1-3.5977-3.5923A3.6,3.6,0,0,1,664.99,386.07Z" transform="translate(-481.3885 -367.2136)"/>
  </g>
  <g>
    <rect class="cls-10" x="231.3155" y="92.9129" width="171.8967" height="106.0656"/>
    <rect class="cls-11" x="231.2287" y="195.3285" width="171.9836" height="10.2951"/>
    <rect class="cls-11" x="241.962" y="179.5004" width="150.6037" height="1.3363"/>
    <rect class="cls-12" x="262.0891" y="105.6049" width="125.6445" height="2.4235"/>
    <rect class="cls-12" x="262.0891" y="112.1328" width="52.1338" height="2.4236"/>
    <path class="cls-13" d="M735.5438,541.84c12.54-3.7459,20.2045-16.0912,34.15-15.0783,12.7671.9272,24.1643,8.6958,37.26,5.8554,12.2217-2.6507,19.9946-10.2759,28.257-18.9154a51.1017,51.1017,0,0,1,38.1352-15.4542v-1.8161a53.4459,53.4459,0,0,0-31.2656,9.0662c-4.8291,3.2919-8.4745,7.4518-12.3792,11.7351A45.975,45.975,0,0,1,809.0509,530.19c-14.7589,4.338-27.43-5.4248-41.9519-5.3622-13.1214.0565-20.0877,11.6916-32.038,15.2614,0,0-.6413,2.087.4828,1.7513Z" transform="translate(-481.3885 -367.2136)"/>
    <path class="cls-4" d="M735.0021,546.4293c10.5042,2.413,14.9166-8.1024,21.3812-14.1251,12.4609-11.609,31.2623-13.0623,46.9219-8.6184,11.01,3.1243,22.3365,6.896,32.7307.0368a123.3094,123.3094,0,0,0,14.9683-11.9536c6.9535-6.3647,14.1007-15.0258,24.8279-12.7736v-1.81c-10.8516-2.2781-17.8612,5.5941-25.1054,12.3778-5.9294,5.5524-13.2678,12.8728-21.1186,15.4107-8.567,2.77-17.6035-.7081-25.82-3.04-11.8973-3.3762-24.1358-3.48-35.73,1.19a42.6333,42.6333,0,0,0-12.1328,7.182c-6.0571,5.2654-10.62,16.627-20.44,14.3713l-.4826,1.7511Z" transform="translate(-481.3885 -367.2136)"/>
    <rect class="cls-11" x="253.2911" y="103.1812" width="1.3362" height="84.6752"/>
  </g>
  <g>
    <path class="cls-10" d="M232.027,219.6638H401.2524a1.96,1.96,0,0,1,1.96,1.96v86.8271a1.96,1.96,0,0,1-1.96,1.96H232.0271a1.96,1.96,0,0,1-1.96-1.96V221.6236A1.96,1.96,0,0,1,232.027,219.6638Z"/>
    <rect class="cls-12" x="238.7346" y="227.0087" width="10.0659" height="5.1073"/>
    <rect class="cls-12" x="314.9692" y="235.1929" width="77.3507" height="5.1073"/>
    <rect class="cls-12" x="314.9692" y="249.5994" width="77.3507" height="5.1075"/>
    <rect class="cls-12" x="314.9692" y="264.0059" width="77.3507" height="5.1075"/>
    <rect class="cls-12" x="314.9692" y="278.4124" width="44.32" height="5.1075"/>
    <rect class="cls-12" x="238.7346" y="241.1148" width="10.0659" height="5.1075"/>
    <rect class="cls-12" x="238.7346" y="255.2207" width="10.0659" height="5.1073"/>
    <rect class="cls-12" x="238.7346" y="269.3265" width="10.0659" height="5.1073"/>
    <rect class="cls-12" x="238.7346" y="283.4326" width="10.0659" height="5.1073"/>
    <rect class="cls-12" x="238.7346" y="297.5385" width="10.0659" height="5.1073"/>
    <g>
      <path class="cls-12" d="M764.1853,595.661v23.6937l.0124.012,16.7175,16.763a23.6149,23.6149,0,0,0,6.96-16.7055c0-.0237.0035-.0464.0035-.07A23.6934,23.6934,0,0,0,764.1853,595.661Z" transform="translate(-481.3885 -367.2136)"/>
      <path class="cls-14" d="M746.3049,602.5789a23.6179,23.6179,0,0,0-6.9614,16.7305l23.691.0573V595.661A23.6167,23.6167,0,0,0,746.3049,602.5789Z" transform="translate(-481.3885 -367.2136)"/>
      <path class="cls-13" d="M763.0469,620.5177h-.0124l-23.691-.0577c0,.0155-.0025.03-.0025.0453a23.692,23.692,0,0,0,40.4236,16.7754Z" transform="translate(-481.3885 -367.2136)"/>
    </g>
  </g>
  <g>
    <rect class="cls-10" x="413.0447" y="187.5087" width="41.8577" height="46.0071"/>
    <path class="cls-14" d="M916.3115,557.7881a10.8,10.8,0,1,0,10.8,10.7995h-10.8Z" transform="translate(-481.3885 -367.2136)"/>
    <rect class="cls-12" x="420.1474" y="214.5475" width="29.551" height="2.8483"/>
    <rect class="cls-12" x="420.1474" y="220.2441" width="29.551" height="2.8483"/>
    <rect class="cls-12" x="420.1474" y="225.9404" width="18.8621" height="2.8483"/>
  </g>
  <g>
    <rect class="cls-10" x="517.9862" y="188.3417" width="41.8577" height="46.0071"/>
    <rect class="cls-13" x="525.0888" y="193.1918" width="12.3379" height="16.2809"/>
    <rect class="cls-12" x="525.0888" y="213.3408" width="29.551" height="2.8483"/>
    <rect class="cls-12" x="525.0888" y="220.0571" width="29.551" height="2.8483"/>
    <rect class="cls-12" x="525.0888" y="226.7734" width="18.8621" height="2.8483"/>
    <rect class="cls-12" x="539.8643" y="193.1918" width="14.7755" height="2.8483"/>
    <rect class="cls-12" x="539.8643" y="199.9081" width="14.7755" height="2.8483"/>
    <rect class="cls-12" x="539.8643" y="206.6244" width="14.7755" height="2.8483"/>
  </g>
  <g>
    <rect class="cls-10" x="570.457" y="188.7583" width="41.8577" height="46.0071"/>
    <path class="cls-14" d="M1073.7236,559.0375a10.8,10.8,0,1,0,10.8,10.8h-10.8Z" transform="translate(-481.3885 -367.2136)"/>
    <rect class="cls-12" x="577.5594" y="215.7969" width="29.5512" height="2.8483"/>
    <rect class="cls-12" x="577.5594" y="221.4935" width="29.5512" height="2.8483"/>
    <rect class="cls-12" x="577.5594" y="227.19" width="18.8623" height="2.8483"/>
  </g>
  <g>
    <rect class="cls-10" x="465.5155" y="187.9251" width="41.8577" height="46.0075"/>
    <rect class="cls-14" x="468.0939" y="226.357" width="38.0962" height="2.8485"/>
    <rect class="cls-14" x="469.6377" y="214.9544" width="5.043" height="9.5636"/>
    <rect class="cls-14" x="477.0774" y="206.9546" width="5.0432" height="17.5634"/>
    <rect class="cls-14" x="484.5173" y="195.9153" width="5.0432" height="28.6027"/>
    <rect class="cls-14" x="491.9572" y="203.0269" width="5.0428" height="21.4911"/>
    <rect class="cls-14" x="499.397" y="195.9153" width="5.0428" height="28.6027"/>
  </g>
  <g>
    <rect class="cls-10" x="411.0361" y="242.1091" width="208.3216" height="67.9266" rx="10.3444"/>
    <path class="cls-11" d="M1090.9642,609.3227H902.2068a9.7821,9.7821,0,0,0-9.7822,9.7822v6.2795h208.3215v-6.2795A9.782,9.782,0,0,0,1090.9642,609.3227Z" transform="translate(-481.3885 -367.2136)"/>
    <path class="cls-15" d="M939.146,652.1524A15.9126,15.9126,0,1,1,923.2336,636.24,15.9126,15.9126,0,0,1,939.146,652.1524Z" transform="translate(-481.3885 -367.2136)"/>
    <rect class="cls-12" x="466.3296" y="270.336" width="135.5086" height="4.2859"/>
    <rect class="cls-12" x="466.3296" y="282.8151" width="135.5086" height="4.2861"/>
    <rect class="cls-12" x="466.3296" y="295.2942" width="50.8158" height="4.2859"/>
    <path class="cls-16" d="M911.3908,617.3534a2.035,2.035,0,1,1-2.035-2.0346A2.035,2.035,0,0,1,911.3908,617.3534Z" transform="translate(-481.3885 -367.2136)"/>
    <path class="cls-16" d="M920.2306,617.3534a2.0349,2.0349,0,1,1-2.0349-2.0346A2.035,2.035,0,0,1,920.2306,617.3534Z" transform="translate(-481.3885 -367.2136)"/>
    <path class="cls-16" d="M929.0705,617.3534a2.0349,2.0349,0,1,1-2.0349-2.0346A2.0351,2.0351,0,0,1,929.0705,617.3534Z" transform="translate(-481.3885 -367.2136)"/>
  </g>
  <g>
    <rect class="cls-10" x="411.2603" y="92.6555" width="197.3216" height="84.3336" rx="4.3052"/>
    <rect class="cls-11" x="422.6629" y="104.3683" width="3.5935" height="60.908"/>
    <rect class="cls-11" x="431.8846" y="104.3683" width="3.5935" height="60.908"/>
    <rect class="cls-11" x="441.1063" y="104.3683" width="3.5935" height="60.908"/>
    <rect class="cls-11" x="450.3281" y="104.3683" width="3.5935" height="60.908"/>
    <rect class="cls-11" x="459.5498" y="104.3683" width="3.5936" height="60.908"/>
    <rect class="cls-11" x="468.7717" y="104.3683" width="3.5933" height="60.908"/>
    <rect class="cls-4" x="422.6629" y="138.4644" width="3.5935" height="26.8119"/>
    <rect class="cls-4" x="431.8846" y="127.3273" width="3.5935" height="37.949"/>
    <rect class="cls-4" x="441.1063" y="121.6644" width="3.5935" height="43.6118"/>
    <rect class="cls-4" x="450.3281" y="127.3273" width="3.5935" height="37.949"/>
    <rect class="cls-4" x="459.5498" y="116.1904" width="3.5936" height="49.0858"/>
    <rect class="cls-4" x="468.7717" y="110.1499" width="3.5933" height="55.1264"/>
    <path class="cls-4" d="M994.7507,481.9143a9.9613,9.9613,0,1,1-9.9614-9.9613A9.9612,9.9612,0,0,1,994.7507,481.9143Z" transform="translate(-481.3885 -367.2136)"/>
    <rect class="cls-12" x="518.7282" y="106.3143" width="80.5621" height="2.683"/>
    <rect class="cls-12" x="518.7282" y="114.126" width="80.5621" height="2.683"/>
    <rect class="cls-12" x="518.7282" y="121.9381" width="33.7486" height="2.683"/>
    <path class="cls-4" d="M994.7507,520.4221a9.9613,9.9613,0,1,1-9.9614-9.9614A9.9612,9.9612,0,0,1,994.7507,520.4221Z" transform="translate(-481.3885 -367.2136)"/>
    <rect class="cls-12" x="518.7282" y="144.8223" width="80.5621" height="2.683"/>
    <rect class="cls-12" x="518.7282" y="152.634" width="80.5621" height="2.683"/>
    <rect class="cls-12" x="518.7282" y="160.4459" width="33.7486" height="2.6832"/>
  </g>
  <g>
    <g>
      <path class="cls-3" d="M1177.6993,497.346s-3.7676-4.3477-3.8468-9.7788c-.03-1.9707,1.5694-5.3911,3.6173-5.42,2.0439-.0332,3.7344,2.4463,3.7783,5.3066C1181.334,492.886,1177.6993,497.346,1177.6993,497.346Z" transform="translate(-481.3885 -367.2136)"/>
      <path class="cls-3" d="M1178.5,506.3851s.5566-5.002,3.998-8.1807c1.248-1.1514,4.4043-2.0615,5.6377-.7217,1.2353,1.3369.6475,3.8858-1.1632,5.5615C1183.5264,506.2249,1178.5,506.3851,1178.5,506.3851Z" transform="translate(-481.3885 -367.2136)"/>
      <path class="cls-3" d="M1177.3653,516.908s2.5469-4.3354,6.9911-5.8325c1.6085-.542,4.8585-.08,5.4385,1.6435s-.9941,3.8106-3.3321,4.6006C1182.0176,518.8157,1177.3653,516.908,1177.3653,516.908Z" transform="translate(-481.3885 -367.2136)"/>
      <path class="cls-3" d="M1178.3594,506.638a16.355,16.355,0,0,1-8.499-2.6543c-1.3916-.9727-3.1064-3.6416-2.25-4.86.8506-1.22,3.3134-.9707,5.335.4415A16.3419,16.3419,0,0,1,1178.3594,506.638Z" transform="translate(-481.3885 -367.2136)"/>
      <path class="cls-3" d="M1178.039,516.9671a15.78,15.78,0,0,1-8.5878-2.5264c-1.3945-.9717-3.0654-3.6963-2.164-4.9883.9-1.29,3.4043-1.0971,5.4256.3155A15.8153,15.8153,0,0,1,1178.039,516.9671Z" transform="translate(-481.3885 -367.2136)"/>
      <path class="cls-3" d="M1175.002,530.888s-4.0127.6772-6.9414-1.376c-1.0645-.7392-2.168-3.07-1.2667-4.3594.9005-1.291,2.9845-1.3945,4.5313-.3144C1174.2579,526.8909,1175.002,530.888,1175.002,530.888Z" transform="translate(-481.3885 -367.2136)"/>
      <path class="cls-3" d="M1175.57,530.95a12.6592,12.6592,0,0,1,5.0488-5.248c1.2266-.63,3.8281-.7754,4.4218.3862.5938,1.1567-.4824,2.8984-2.2626,3.813A12.678,12.678,0,0,1,1175.57,530.95Z" transform="translate(-481.3885 -367.2136)"/>
    </g>
    <path class="cls-3" d="M1175.25,588.4153a4.852,4.852,0,0,0,1.996.3672l-.08-.95.0372.4746-.0343-.4765c-.0927.0093-2.2451.1308-4.3076-2.3526-2.32-2.7856-3.5625-7.603-3.6894-14.31-.1777-9.2017,1.7813-21.7359,5.8242-37.2534,4.6934-18.0235,3.8448-28.1358,3.2851-34.8282-.1464-1.7129-.2694-3.1953-.2577-4.4546l-.9531-.0092c-.01,1.3056.1132,2.8056.26,4.5459.5567,6.6259,1.3964,16.64-3.2578,34.5029-8.998,34.5469-6.0058,47.5967-1.9122,52.4614A7.6005,7.6005,0,0,0,1175.25,588.4153Z" transform="translate(-481.3885 -367.2136)"/>
  </g>
  <g>
    <path class="cls-1" d="M1150.5782,569.9192a105.7416,105.7416,0,0,0-4.3946,98.5376,105.4874,105.4874,0,0,0,88.3134-150.3676A105.7417,105.7417,0,0,0,1150.5782,569.9192Z" transform="translate(-481.3885 -367.2136)"/>
    <g>
      <rect class="cls-3" x="1111.0508" y="595.099" width="154.0235" height="1.9413" transform="translate(-409.0894 951.2572) rotate(-59.5647)"/>
      <rect class="cls-3" x="1210.9174" y="553.8074" width="26.1368" height="1.9417" transform="translate(-561.9359 -135.1009) rotate(-10.4899)"/>
      <rect class="cls-3" x="1197.562" y="575.8994" width="32.2199" height="1.9417" transform="translate(-566.1304 -136.6094) rotate(-10.4899)"/>
      <rect class="cls-3" x="1184.0872" y="596.5803" width="53.8579" height="1.9417" transform="translate(-569.94 -136.7473) rotate(-10.4899)"/>
      <rect class="cls-3" x="1170.7971" y="619.3632" width="52.4" height="1.9412" transform="translate(-573.9479 -140.148) rotate(-10.4353)"/>
      <rect class="cls-3" x="1157.6892" y="644.1129" width="29.1782" height="1.9413" transform="translate(-578.8356 -144.2277) rotate(-10.4347)"/>
      <rect class="cls-3" x="1207.1852" y="528.7365" width="1.9421" height="26.1391" transform="translate(-591.2819 48.3372) rotate(-18.6825)"/>
      <rect class="cls-3" x="1191.5446" y="537.1534" width="1.9421" height="40.7529" transform="translate(-597.1596 44.3069) rotate(-18.6892)"/>
      <rect class="cls-3" x="1176.6022" y="549.8079" width="1.9421" height="51.0166" transform="translate(-603.6204 40.2512) rotate(-18.6801)"/>
      <rect class="cls-3" x="1163.0792" y="571.1056" width="1.9421" height="52.3979" transform="translate(-611.3981 37.2314) rotate(-18.6869)"/>
      <rect class="cls-3" x="1150.9596" y="600.944" width="1.9422" height="45.0101" transform="translate(-620.408 34.6942) rotate(-18.6855)"/>
    </g>
  </g>
  <g>
    <path class="cls-1" d="M1218.1758,617.741a88.0318,88.0318,0,0,0-35.5,74.0415,87.8185,87.8185,0,0,0,116.6816-86.372A88.0235,88.0235,0,0,0,1218.1758,617.741Z" transform="translate(-481.3885 -367.2136)"/>
    <g>
      <rect class="cls-3" x="1174.2524" y="649.1862" width="128.2179" height="1.6156" transform="translate(-625.1408 496.7728) rotate(-36.4954)"/>
      <rect class="cls-3" x="1278.5307" y="619.2018" width="1.6163" height="21.7602" transform="translate(-95.9976 1373.9795) rotate(-77.402)"/>
      <rect class="cls-3" x="1263.4296" y="630.2324" width="1.6163" height="26.8171" transform="translate(-121.1437 1369.756) rotate(-77.3964)"/>
      <rect class="cls-3" x="1254.6486" y="636.1937" width="1.6158" height="44.8378" transform="translate(-142.4594 1373.027) rotate(-77.4049)"/>
      <rect class="cls-3" x="1236.4838" y="649.6816" width="1.6163" height="43.6193" transform="translate(-169.3689 1365.2503) rotate(-77.3975)"/>
      <rect class="cls-3" x="1209.4785" y="670.2448" width="1.6163" height="24.2869" transform="translate(-201.044 1347.4803) rotate(-77.4015)"/>
      <rect class="cls-3" x="1260.5667" y="614.1779" width="21.7583" height="1.616" transform="translate(80.0858 1468.7238) rotate(-85.635)"/>
      <rect class="cls-3" x="1237.3778" y="621.1186" width="33.9221" height="1.616" transform="translate(57.3547 1458.0755) rotate(-85.6347)"/>
      <rect class="cls-3" x="1215.8599" y="629.8686" width="42.4668" height="1.616" transform="translate(32.624 1448.9193) rotate(-85.6312)"/>
      <rect class="cls-3" x="1197.7542" y="642.2993" width="43.6224" height="1.616" transform="translate(4.1088 1442.9715) rotate(-85.6347)"/>
      <rect class="cls-3" x="1183.0225" y="658.3735" width="37.4716" height="1.616" transform="translate(-28.3706 1440.0667) rotate(-85.6347)"/>
    </g>
  </g>
  <path class="cls-3" d="M1015.8554,650.9046c-19.8983-13.2793-2.453-14.9053,17.6661-12.2988-8.5957-8.8828-1.4453-15.461,23.8379-20.6543,11.3516-2.333,24.1739,1.4082,36.3438,7.81,12.248-13.7724,27.2461-22.3652,41.9179-14.84,12.127,6.2236,20.7911,12.9922,25.8213,19.6875q6.2416-1.1222,13.3643-1.8931c10.33-1.104,17.4365,1.64,22.0957,6.6138,20.91-6.5191,41.4961-9.3028,52.1973-1.6465,18.6074,13.3066,19.9,22.7886,5.3133,30.1855,20.0285,3.044,34.3858,10.0342,6.2785,18.9991,24.1836.9785,40.9414,5.0507,29.0409,14.999-26.5214,22.1767-134.2569,12.9834-212.4823-8.4365-50.1476-8.4161-91.0567-20.9121-97.2325-34.62C975.4688,644.723,993.2637,645.7952,1015.8554,650.9046Z" transform="translate(-481.3885 -367.2136)"/>
  <g>
    <path class="cls-4" d="M691.6074,440.2347a20.5186,20.5186,0,1,1-20.52-20.52A20.5184,20.5184,0,0,1,691.6074,440.2347Z" transform="translate(-481.3885 -367.2136)"/>
    <path class="cls-17" d="M663.8926,431.6692V443.2a3.7266,3.7266,0,1,0,2.3544,3.4639v-9.479l10.3976-2.0806v5.5449a3.7236,3.7236,0,0,0-5.1,3.4639,3.7276,3.7276,0,1,0,7.4552,0V428.6487Z" transform="translate(-481.3885 -367.2136)"/>
  </g>
  <rect class="cls-4" x="231.2287" y="62.7506" width="84.5616" height="6.2177"/>
  <rect class="cls-2" x="231.2287" y="76.4303" width="180.3145" height="6.2177"/>
  <g>
    <path class="cls-4" d="M1308.8613,713.6536c2.8868-4.4336-.703-8.2046-14.4042-10.21a111.874,111.874,0,0,0-41.002,2.0127c27.7266-13.4336,60.0508-32.3,30.5391-34.4815-9.2032-.6807-23.3565,3.7754-39.0939,10.7344,17.5587-14.2881,27.2169-26.0352,16.58-28.2149-9.8759-2.0273-30.0145,9.5938-51.451,25.02,12.2148-12.9267,19.289-24.2089,13.8007-29.5322-4.4786-4.3428-14.0293.6426-25.0156,9.8789.49-8.123-2.9219-13.0244-10.711-12.042-7.3271.9268-13.2608,10.3272-17.4981,21.6055-7.0282-17.4922-25.5907-28.19-44.3164-22.877-21.9961,6.2349-4.3241,48.1719,5.5177,68.1055Z" transform="translate(-481.3885 -367.2136)"/>
    <g>
      <path class="cls-4" d="M1215.56,693.3763l-1.0255-.209c17.3048-84.8086,51.8546-120.9566,52.2022-121.312l.7481.7314C1267.14,572.94,1232.7969,608.9017,1215.56,693.3763Z" transform="translate(-481.3885 -367.2136)"/>
      <path class="cls-4" d="M1208.3868,684.6155c-.3946-49.96,20.8213-94.8335,21.0361-95.2807l.9433.4521c-.2128.4453-21.3252,45.1094-20.9326,94.8208Z" transform="translate(-481.3885 -367.2136)"/>
      <path class="cls-4" d="M1227.5157,687.6146c-.0968-24.0206,8.6552-40.0225,16.0137-49.2168,7.9833-9.9747,16.122-14.3277,16.203-14.37l.4884.9258c-.3184.168-31.8409,17.3252-31.6582,62.6572Z" transform="translate(-481.3885 -367.2136)"/>
      <path class="cls-4" d="M1271.1679,565.2064c7.2559,4.1992,11.7579,9.9824,10.0576,12.9228s-8.9628,1.92-16.2176-2.2764c-7.2578-4.1972-11.7578-9.9824-10.06-12.9228C1256.6524,559.991,1263.9111,561.01,1271.1679,565.2064Z" transform="translate(-481.3885 -367.2136)"/>
      <path class="cls-5" d="M1269.0645,568.8382c2.3057,1.334,3.7343,3.1709,3.1943,4.1045-.5419.9326-2.8428.6094-5.1484-.7217-2.3037-1.334-3.7353-3.1709-3.1964-4.103C1264.4571,567.1839,1266.7618,567.5071,1269.0645,568.8382Z" transform="translate(-481.3885 -367.2136)"/>
      <path class="cls-4" d="M1231.584,586.6409c3.02,1.7451,4.8945,4.1568,4.1895,5.38-.707,1.2236-3.7306.7979-6.752-.9482-3.0234-1.7471-4.8984-4.1553-4.1875-5.378C1225.542,584.47,1228.5635,584.8948,1231.584,586.6409Z" transform="translate(-481.3885 -367.2136)"/>
      <path class="cls-5" d="M1230.709,588.1526c.9589.5547,1.5547,1.32,1.33,1.71s-1.1836.2544-2.1444-.3018c-.957-.5546-1.5527-1.3173-1.33-1.708C1228.791,587.4632,1229.75,587.598,1230.709,588.1526Z" transform="translate(-481.3885 -367.2136)"/>
      <path class="cls-4" d="M1262.3184,622.1648c3.1719,3.191,4.6914,6.82,3.4042,8.105-1.2948,1.2852-4.9159-.2617-8.0878-3.4521-3.17-3.1914-4.6933-6.82-3.4024-8.1074C1255.5274,617.4261,1259.1465,618.973,1262.3184,622.1648Z" transform="translate(-481.3885 -367.2136)"/>
      <path class="cls-5" d="M1260.7208,623.7523c1.0057,1.0146,1.49,2.1679,1.078,2.5742-.4081.4077-1.5605-.084-2.5664-1.0977-1.0059-1.0117-1.4892-2.164-1.0821-2.5723C1258.5665,622.2483,1259.711,622.74,1260.7208,623.7523Z" transform="translate(-481.3885 -367.2136)"/>
    </g>
  </g>
  <path class="cls-4" d="M1057.4287,500.0228a5.9466,5.9466,0,0,0-3.5733-3.1973c-4.3534-1.2295-9.5975,3.8476-11.7147,11.3408-2.1113,7.4912-.298,14.5586,4.0566,15.7891a6.0537,6.0537,0,0,0,4.9414-.9971q.7762-2.6733,1.543-5.3965C1054.378,511.555,1055.9649,505.6858,1057.4287,500.0228Z" transform="translate(-481.3885 -367.2136)"/>
  <g>
    <circle class="cls-18" cx="1117.6032" cy="396.2149" r="28.7019" transform="translate(-434.2163 539.0999) rotate(-45)"/>
    <path class="cls-19" d="M1130.2285,401.6582a5.6027,5.6027,0,0,1-1.0074,3.8926c-.0555,3.2486-2.0815,5.5394-6.5626,5.5394-.4068,0-.8717-.0006-1.2912-.0006-5.97,0-7.7451-2.2626-10.3315-2.3208a1.86,1.86,0,0,1-1.8,1.3917h-3.7188a1.8594,1.8594,0,0,1-1.8594-1.8594V394.3555a1.8593,1.8593,0,0,1,1.8594-1.8594h5.7386c1.1124-.9851,2.6737-3.5243,3.9952-4.8461.7942-.7941.59-6.31,4.17-6.31,3.3458,0,5.5358,1.8557,5.5358,6.0855a7.4183,7.4183,0,0,1-.5143,2.7042h2.12a5.0566,5.0566,0,0,1,4.9866,4.9727,5.4954,5.4954,0,0,1-.7978,2.8962A5.3958,5.3958,0,0,1,1130.2285,401.6582Zm-22.852,3.3888a1.3947,1.3947,0,1,0,1.3946,1.3946A1.3946,1.3946,0,0,0,1107.3765,405.047Zm20.0891-7.7338c.5491,0,1.2992-1.0989,1.294-2.1971a2.2693,2.2693,0,0,0-2.1975-2.1976H1120.52c0-2.1975,1.6479-3.2173,1.6479-5.4933,0-1.38,0-3.2964-2.7467-3.2964-1.0988,1.0988-.55,3.8454-2.1977,5.4934-1.5432,1.544-3.8454,5.663-5.4932,5.663h-.6346v10.8177c3.1151,0,5.8107,2.1976,9.9733,2.1976h2.1976c2.0635,0,3.534-.9948,3.0867-3.8292a2.58,2.58,0,0,0,.81-3.3453A2.7916,2.7916,0,0,0,1127.4656,397.3132Z" transform="translate(-481.3885 -367.2136)"/>
  </g>
  <path class="cls-20" d="M993.4336,576.4046c-3.9492,22.0576,11.1172,43.207,33.6446,47.24,22.5282,4.0274,43.9912-10.5849,47.9336-32.6435,3.9463-22.0615-11.1172-43.21-33.6465-47.2432C1018.84,539.7317,997.379,554.3489,993.4336,576.4046Z" transform="translate(-481.3885 -367.2136)"/>
  <path class="cls-20" d="M1030.4219,541.4544c-3.6543,20.4219,10.293,39.998,31.1426,43.7266,20.8554,3.7343,40.7188-9.7974,44.3721-30.2168,3.6553-20.42-10.29-39.9942-31.1456-43.7237C1053.94,507.511,1034.0743,521.0384,1030.4219,541.4544Z" transform="translate(-481.3885 -367.2136)"/>
  <path class="cls-20" d="M1048.5157,510.761c-3.48,19.4786,8.4863,37.9121,26.73,41.1758,18.2481,3.26,35.8633-9.8808,39.3466-29.3608,3.4874-19.4712-8.4843-37.9107-26.7274-41.1734C1069.6153,478.137,1052.002,491.2864,1048.5157,510.761Z" transform="translate(-481.3885 -367.2136)"/>
  <path class="cls-20" d="M1048.0069,558.4642c-4.4385,24.8144,12.5078,48.6045,37.8485,53.1386,25.3439,4.5323,49.4824-11.9072,53.922-36.7187,4.4414-24.8174-12.5078-48.6065-37.8467-53.14C1076.59,517.2073,1052.4415,533.6556,1048.0069,558.4642Z" transform="translate(-481.3885 -367.2136)"/>
  <path class="cls-21" d="M1009.42,572.99c-2.9667,16.5893,8.36,32.497,25.3009,35.5263,16.9452,3.0283,33.08-7.9643,36.0517-24.5517,2.9658-16.5874-8.3673-32.4893-25.3056-35.52C1028.5264,545.41,1012.3848,556.4036,1009.42,572.99Z" transform="translate(-481.3885 -367.2136)"/>
  <path class="cls-20" d="M1036.5889,546.3548c-2.9687,16.5869,8.3662,32.4932,25.3,35.522,16.9453,3.0346,33.0829-7.9585,36.05-24.5494,2.9659-16.5869-8.3613-32.496-25.3008-35.5214C1055.6973,518.7728,1039.5528,529.7649,1036.5889,546.3548Z" transform="translate(-481.3885 -367.2136)"/>
  <path class="cls-22" d="M1072.9062,493.4856c.5646-.0551,1.1318-.08,1.7071-.082-.0185,6.69,3.7715,15.2793,10.6739,22.7393a49.2445,49.2445,0,0,0,5.2353,4.8672l-1.0869,6.081c-1.6113,9.0069-10.5469,14.9424-19.96,13.2569-9.4129-1.6807-15.7392-10.3487-14.1258-19.3536l2.4511-13.71C1063.0351,505.0032,1068.5294,500.1458,1072.9062,493.4856Z" transform="translate(-481.3885 -367.2136)"/>
  <path class="cls-22" d="M1043.3155,563.8152c-.4453-2.686-3.0294-7.3588-9.38-5.0522-6.6738,2.4287-11.1172,8.5176-11.9844,25.2637a173.1658,173.1658,0,0,1-6.93,39.2661c-2.5947,9.24,9.24,27.1372,15.8809,16.1665,6.6425-10.9727,10.3925-38.3965,10.9727-45.9053C1042.4522,586.0462,1043.6074,565.5442,1043.3155,563.8152Z" transform="translate(-481.3885 -367.2136)"/>
  <path class="cls-22" d="M1102.2149,536.9681s-14.7256,56.874-8.085,92.3847c4.6973,25.104,13.77,8.1182,21.2216,5.6319,0,0-.4355-3.1748-.4355-14.8677,0-19.3814.6739-37.1782,2.3125-47.9253,2.5977-17.0317,2.5977-27.7187-.8652-31.76C1112.8965,536.389,1110.0118,534.08,1102.2149,536.9681Z" transform="translate(-481.3885 -367.2136)"/>
  <g>
    <path class="cls-23" d="M1146.5694,415.2447h35.8478a8.5215,8.5215,0,0,1,8.5215,8.5215v19.7407a8.5215,8.5215,0,0,1-8.5215,8.5215h-35.8477a8.5216,8.5216,0,0,1-8.5216-8.5216V423.7662a8.5215,8.5215,0,0,1,8.5215-8.5215Z" transform="translate(-544.3026 -127.3716) rotate(-11.4521)"/>
    <polygon class="cls-17" points="677.199 60.498 679.971 74.179 687.625 65.507 677.199 60.498"/>
  </g>
  <path class="cls-22" d="M1112.3184,628.1966s.5781-4.6143,6.9317,21.6562c6.3475,26.2769,10.3945,71.5977,17.035,80.2632,6.6387,8.6621,8.9493,3.4634,7.7931,4.6187-4.1007,4.103-5.7754,8.08-10.1035,7.2163-4.33-.8677-13.8614-18.188-23.6788-48.2129-9.8155-30.0288-15.876-50.523-14.1425-59.7622S1111.4522,625.8909,1112.3184,628.1966Z" transform="translate(-481.3885 -367.2136)"/>
  <path class="cls-22" d="M1056.752,559.2005s22.6436-7.68,25.7676-9.4644c3.125-1.79-8.4063,0,1.203-18.9126.1152-.2314-17.4375-10.3549-18.999-10.6582-1.5635-.2978-3.126,3.8789-3.126,3.8789S1065.3427,542.012,1056.752,559.2005Z" transform="translate(-481.3885 -367.2136)"/>
  <path class="cls-22" d="M1124.7354,729.5384s4.3291,10.6806,6.9306,11.5449c2.5958.8677,9.5245,0,13.8555-1.44,4.33-1.4434,7.5038-3.4649,9.8155-3.7549,2.31-.2891,15.3056,3.8628,19.0556,4.04,3.9444.2,5.1.2,7.2168-.57,2.1171-.7725,1.3477-2.3154,1.3477-2.3154s-1.8291-.19-7.5059-1.3487c-7.9884-1.62-19.0576-7.1064-21.9414-8.6611-5.0058-2.6943-5.3691-3.0869-8.2754-1.9219a79.3239,79.3239,0,0,1-11.9316,3.2715A45.1919,45.1919,0,0,1,1124.7354,729.5384Z" transform="translate(-481.3885 -367.2136)"/>
  <path class="cls-22" d="M1128.8711,737.6224s1.8184,5.1338,9.4317,7.8886c5.583,2.02,6.5234,1.6387,9.4316,1.5411a18.161,18.161,0,0,0,3.8516-.3819s.4785-2.501-3.082-2.89c-1.9961-.2129-5.7716-2.6934-4.043-3.8462C1146.1944,738.7781,1128.8711,737.6224,1128.8711,737.6224Z" transform="translate(-481.3885 -367.2136)"/>
  <path class="cls-24" d="M1039.2753,686.2327s-5.7752-21.9463-6.06-34.3579c-.2911-12.4155,1.1523-34.36.8633-35.2246-.2872-.8687-8.376-6.3521-7.7949-12.125.5771-5.7759,8.0839-21.0728,9.5293-25.6919,1.4414-4.6221,1.4414-20.793,1.4414-20.793a55.4132,55.4132,0,0,0,29.162-2.5947c15.8769-5.7773,35.7989-18.4775,35.7989-18.4775s10.6816,1.1543,2.5967,49.3672c-8.0812,48.2177-10.5772,51.0839-10.9717,65.25-.5742,20.79,12.1309,44.1748,13.2821,61.7841C1108.2753,730.9788,1043.3155,692.5789,1039.2753,686.2327Z" transform="translate(-481.3885 -367.2136)"/>
  <path class="cls-25" d="M1049.9581,683.6331c-22.7637-9.17-37.5313-8.376-91.81-2.6006-12.4365,1.3208-37.707,3.0415-50.2374,10.1065-11.2567,6.3554-14.4189,22.9736,41.9365,34.082,51.4786,10.1455,117.9336,14.9487,135.045,1.1416C1102.004,712.5516,1072.1924,692.5789,1049.9581,683.6331Z" transform="translate(-481.3885 -367.2136)"/>
  <path class="cls-22" d="M1038.1172,747.4407s2.3125,1.4429,3.4668.5742c1.1563-.8652,4.3339-4.621,9.5293-1.7285,5.1983,2.8828,6.6407,6.3477,11.5468,6.6377,4.9064.2852,17.0333-1.7334,20.5,1.1524,3.465,2.8886,8.9493,13.57,7.5059,21.0771-1.4462,7.5049-3.7538,8.37-6.0625,4.9082-2.3106-3.4638-4.332-5.4883-5.4843-6.0635-1.1564-.5752-14.1484-5.4824-18.48-7.7954a112.9632,112.9632,0,0,0-12.124-5.4863c-1.7363-.5757-11.2617-2.31-12.128-2.31S1038.1172,747.4407,1038.1172,747.4407Z" transform="translate(-481.3885 -367.2136)"/>
  <path class="cls-24" d="M1083.16,754.0765c-3.4667-2.8858-15.5936-.8672-20.5-1.1524-4.9061-.29-6.3485-3.7549-11.5468-6.6377-4.1074-2.2871-6.9716-.9531-9.5605,1.64a4.7662,4.7662,0,0,1,1.57-.3389c2.8573.3389,9.08,5.3242,13.6191,7.2188,4.9053,2.0429,13.8965,3.6757,17.7754,6.33,2.4707,1.6914,3.68,7.5586,3.9532,12.58.3.126.538.2266.6484.2822,1.1523.5752,3.1737,2.6,5.4843,6.0635,2.3087,3.4619,4.6163,2.5967,6.0625-4.9082C1092.1094,767.6468,1086.6251,756.9651,1083.16,754.0765Z" transform="translate(-481.3885 -367.2136)"/>
  <path class="cls-26" d="M1039.2753,759.85s-82.9784-16.6826-101.6268-23.9619-47.9259-12.125-40.3673-32.4224c6.8575-18.4057,27.5353-20.5591,54.7189-9.1811,27.1835,11.3838,27.5117,12.1562,47.7207,24.5742,25.7461,15.8115,40.7089,29.4453,40.7089,29.4453Z" transform="translate(-481.3885 -367.2136)"/>
  <polygon class="cls-20" points="599.939 249.643 602.334 252.041 592.479 268.024 577.444 268.452 575.104 265.381 583.954 253.109 599.939 249.643"/>
  <path class="cls-22" d="M1032.6475,630.4446l20.51-5.456,7.4481.6924-3.246,5.3388,6.6757,4.0616,7.7775-.7627,4.3612-3.5635.3526,5.1435a9.7071,9.7071,0,0,1-3.4072,3.7906c-2.3633,1.4868-11.53,10.5463-11.53,10.5463l-5.081-2.1757-11.3877-5.6358-8.919,3.5362Z" transform="translate(-481.3885 -367.2136)"/>
  <path class="cls-22" d="M935.0488,739.3587a3.5922,3.5922,0,0,0-.5733,4.3252c1.4424,2.3105,4.3273,4.0454,3.753,6.9316-.58,2.8838-1.1562,3.461-4.3282,5.77-3.1795,2.31-8.664,5.1983-11.8446,11.8409-3.1728,6.6367-7.502,12.9882-15.2978,14.1464-7.7989,1.15-13.8594.5743-17.6143-1.1582-3.751-1.7319-1.7276-3.7514.8682-4.9062a27.5756,27.5756,0,0,0,11.8379-9.8164c3.7518-5.7759,7.7949-10.6817,10.3906-15.3018,2.6016-4.6211,5.78-9.5283,8.3769-14.1474S935.0488,736.178,935.0488,739.3587Z" transform="translate(-481.3885 -367.2136)"/>
  <path class="cls-24" d="M924.5118,755.9676c-5.1446,5.2573-7.9434,11.0952-15.3028,14.1445-3.8125,1.5806-8.7832,1.6509-10.7217.4614a29.23,29.23,0,0,1-8.4755,5.7354c-2.5958,1.1548-4.6192,3.1743-.8682,4.9062,3.7549,1.7325,9.8154,2.3086,17.6143,1.1582,7.7958-1.1582,12.125-7.51,15.2978-14.1464,3.1806-6.6426,8.6651-9.5308,11.8446-11.8409,3.172-2.3095,3.7482-2.8867,4.3282-5.77.4747-2.3906-1.412-3.99-2.8964-5.7822C933.5264,747.6536,929.4454,750.9212,924.5118,755.9676Z" transform="translate(-481.3885 -367.2136)"/>
  <path class="cls-4" d="M1104.8116,698.9349s-30.6016-45.0415-55.4287-59.4756c-24.83-14.4385-87.7676-66.98-42.7326,24.25,23.2267,47.0517,39.2676,75.6494,60.63,80.84C1088.6456,749.7493,1127.334,744.5491,1104.8116,698.9349Z" transform="translate(-481.3885 -367.2136)"/>
  <path class="cls-4" d="M913.6856,741.6624s38.6895-75.6416,49.6563-92.3887c10.9726-16.7412,30.0292-50.2348,38.1152-32.333,8.08,17.8965,14.4346,31.1778-2.3125,55.4346-16.7422,24.248-16.7422,24.248-38.1095,45.6162-21.3642,21.3672-28.2948,25.4024-28.2948,25.4024Z" transform="translate(-481.3885 -367.2136)"/>
  <path class="cls-4" d="M1094.4669,532.5086a5.9475,5.9475,0,0,0,3.6307,3.1343c4.3732,1.1543,9.5275-4.0137,11.5118-11.541s.0468-14.5655-4.3282-15.7178a6.0658,6.0658,0,0,0-4.9248,1.0845q-.7249,2.6843-1.4481,5.4223C1097.3184,520.9241,1095.834,526.8206,1094.4669,532.5086Z" transform="translate(-481.3885 -367.2136)"/>
  <path class="cls-27" d="M1109.6094,524.1019c1.2725-4.8243.9257-9.441-.6347-12.4424q-.6826,2.5268-1.3634,5.0957c-1.5878,6.0342-3.0723,11.93-4.4414,17.6177.0137.0219.0274.0385.0382.06C1105.9317,532.5237,1108.379,528.7679,1109.6094,524.1019Z" transform="translate(-481.3885 -367.2136)"/>
  <path class="cls-4" d="M1103.2979,516.9085l-4.0724-1.1523a29.6459,29.6459,0,0,0-1.3309-20.8692,22.4037,22.4037,0,0,0-14.2227-12.1113c-12.5606-3.5532-27.75,5.9585-33.1895,20.7666l-3.9726-1.459c6.2792-17.0937,23.4687-27.58,38.3145-23.3794a26.5835,26.5835,0,0,1,16.8877,14.356A33.8709,33.8709,0,0,1,1103.2979,516.9085Z" transform="translate(-481.3885 -367.2136)"/>
  <path class="cls-21" d="M813.1622,766.2464a134.56,134.56,0,0,0,15.3584-.7251c8.7519-.9961,11.2275-2.6641,11.31-3.4927.0253-.2461-.1445-1.5688-5.9-3.4258-9.23-2.977-15.9814-2.4023-19.0175,1.6153A9.719,9.719,0,0,0,813.1622,766.2464Zm368.7587-204.47c-2.666,0-9.0087,2.5009-20.0165,12.042a102.1855,102.1855,0,0,0-17.0958,20.0131,63.61,63.61,0,0,0,16.3125-7.9917c16.9326-11.1274,22.7627-19.958,22.46-22.9106a1.0926,1.0926,0,0,0-.72-1.0054A2.5912,2.5912,0,0,0,1181.9209,561.7767ZM932.7753,832.1941a178.7089,178.7089,0,0,1-55.4784-8.3339c-25.6484-8.37-47.6689-23.419-58.9043-40.2564-3.9355-5.8979-6.1406-11.4536-6.5029-16.0679a231.4688,231.4688,0,0,1-57.0811-7.9057c-23.41-6.4971-53.19-19.7866-62.12-46.2022l1.2324-.416c8.747,25.876,38.1279,38.9522,61.2353,45.3657a230.0556,230.0556,0,0,0,56.68,7.86,11.0054,11.0054,0,0,1,2.0391-6.8037c3.3955-4.4927,10.659-5.2275,20.4531-2.0684,4.8076,1.5508,6.9667,3.0738,6.7959,4.792-.2168,2.1734-4.4072,3.7393-12.4571,4.6553a136.0458,136.0458,0,0,1-15.4444.7319c.3779,4.378,2.51,9.73,6.251,15.3374,11.0792,16.6031,32.8458,31.46,58.2266,39.7422,33.78,11.0225,74.126,11.0269,116.6758.0142,125.7831-32.5547,248.5966-66.044,248.69-86.4224.0205-4.3071-5.837-8.0679-17.4092-11.1777-56.7578-15.2544-89.2237-39.0425-96.4943-70.7031-3.4823-15.1631-.8553-32.1719,7.5968-49.1875,1.6035-3.2271,3.3447-6.3125,5.1591-9.2251-6.9267,1.4878-13.2274.8515-18.8446-1.9224-12.2277-6.0391-18.8838-21.2642-22.3145-32.9731a130.1738,130.1738,0,0,1-4.5566-24.0933l1.2969-.0938c.0322.4468,3.49,44.8062,26.1513,55.9956,5.6787,2.8038,12.1182,3.3062,19.2626,1.5186a104.667,104.667,0,0,1,18.1388-21.5181c10.2323-8.8686,18.78-13.5127,22.2871-12.1206a2.3926,2.3926,0,0,1,1.5352,2.0816c.4149,4.0561-6.6172,13.3374-23.0391,24.1294a62.7429,62.7429,0,0,1-18.1065,8.5625,109.1075,109.1075,0,0,0-5.8047,10.2373c-5.8,11.6753-11.8076,29.5356-7.4941,48.3178,7.1543,31.1553,39.3066,54.6187,95.5645,69.7383,12.3857,3.3291,18.3955,7.398,18.372,12.44-.1,21.3193-118.1533,53.6372-249.665,87.6748A248.02,248.02,0,0,1,932.7753,832.1941Z" transform="translate(-481.3885 -367.2136)"/>
  <g>
    <circle class="cls-28" cx="635.0429" cy="515.6519" r="36.559" transform="translate(-658.6375 51.7006) rotate(-32.2849)"/>
    <path class="cls-17" d="M661.5169,505.99l-2.64,3.2674a1.7927,1.7927,0,0,1-.9577.4969,1.01,1.01,0,0,1-.9539-.2941,32.6179,32.6179,0,0,0-15.2422-6.2019,31.9593,31.9593,0,0,0-15.812,1.6777,32.6219,32.6219,0,0,0-13.6014,9.2627,1.01,1.01,0,0,1-.8707.4878,1.7934,1.7934,0,0,1-1.0408-.285l-3.2671-2.64a1.3722,1.3722,0,0,1-.1251-2.0074,38.4637,38.4637,0,0,1,16.4577-11.3227,39.0545,39.0545,0,0,1,19.2871-2.0466,38.4636,38.4636,0,0,1,18.4674,7.6168,1.3722,1.3722,0,0,1,.299,1.9889Zm-8.6794,10.9368-2.6406,3.2673a1.496,1.496,0,0,1-1.9112.2028,19.4617,19.4617,0,0,0-25.1949,2.6735,1.4958,1.4958,0,0,1-1.9112.2028l-3.2675-2.64a1.29,1.29,0,0,1-.5015-1.0012,1.6,1.6,0,0,1,.3672-1.0932,25.6548,25.6548,0,0,1,10.4981-7.0443,26.26,26.26,0,0,1,12.5107-1.3275,25.6524,25.6524,0,0,1,11.7426,4.6842,1.6008,1.6008,0,0,1,.5886.9917A1.2914,1.2914,0,0,1,652.8375,516.9266Zm-10.7593,12.0359a5.52,5.52,0,1,0-1.1879,4.1236A5.4035,5.4035,0,0,0,642.0782,528.9625Z" transform="translate(-481.3885 -367.2136)"/>
  </g>
</svg>
