<?xml version="1.0" encoding="UTF-8"?>
<svg xmlns="http://www.w3.org/2000/svg" xmlns:xlink="http://www.w3.org/1999/xlink" width="500pt" height="281pt" viewBox="0 0 500 281" version="1.1">
<g id="surface1">
<path style=" stroke:none;fill-rule:nonzero;fill:rgb(0%,0%,0%);fill-opacity:1;" d="M 173.851562 159.425781 C 172.574219 163.761719 167.972656 169.617188 159.144531 183.910156 C 152.84375 194.113281 135.253906 201.648438 131 195.871094 C 128.828125 192.921875 132.582031 190.101562 131.394531 186.941406 C 129.851562 182.835938 124.65625 185.042969 122.386719 187.292969 C 106.207031 203.375 79.375 206.902344 80.066406 191.175781 C 80.4375 182.675781 66.300781 180.199219 62.566406 184.511719 C 54.648438 193.671875 42.5 195.527344 39.089844 185.679688 C 35.738281 176.003906 29.351562 170.621094 23.808594 172.988281 C 18.269531 175.347656 13.703125 184.605469 2.621094 175.042969 C -1.746094 171.273438 -1.027344 160.84375 7.621094 157.058594 C 12.554688 154.898438 31.523438 152.351562 15.601562 143.984375 C -0.808594 135.363281 8.800781 127.550781 18.453125 129.917969 C 22.050781 130.800781 56.097656 140.09375 48.089844 132.527344 C 38.640625 123.597656 45.75 118.835938 62.074219 125.171875 C 69.488281 128.046875 84.644531 137.683594 85.378906 133.082031 C 86.117188 128.484375 88.984375 124.699219 100.550781 127.3125 C 150.914062 138.707031 173.382812 161.015625 173.851562 159.425781 Z M 173.851562 159.425781 "/>
<path style=" stroke:none;fill-rule:nonzero;fill:rgb(0%,0%,0%);fill-opacity:1;" d="M 95.027344 179.925781 C 95.371094 178.378906 95.304688 165.160156 103.539062 160.402344 C 110.074219 156.628906 107.558594 153.722656 104.578125 152.144531 C 101.597656 150.570312 98.078125 150.40625 99.777344 146.519531 C 105.367188 133.722656 101.398438 120.371094 94.316406 126.699219 C 90.488281 130.117188 86.929688 124.941406 88.269531 121.667969 C 91.109375 114.730469 89.878906 108.757812 84.789062 111.050781 C 79.78125 113.308594 76.226562 112.601562 76.359375 109.296875 C 76.492188 105.992188 79.953125 100.464844 73.671875 99.328125 C 71.203125 98.882812 66.546875 103.1875 66.292969 108.386719 C 66.148438 111.351562 68.230469 120.546875 61.671875 116.851562 C 54.914062 113.046875 54.511719 119.359375 57.246094 122.636719 C 58.265625 123.855469 66.816406 135.890625 61.984375 135.320312 C 56.273438 134.644531 55.3125 139.550781 61.003906 144.199219 C 63.589844 146.304688 70.597656 149.175781 68.617188 151.261719 C 66.636719 153.34375 64.09375 161.292969 69.140625 162.097656 C 83.46875 164.390625 95.746094 176.714844 95.027344 179.925781 Z M 95.027344 179.925781 "/>
<path style=" stroke:none;fill-rule:nonzero;fill:rgb(0%,0%,0%);fill-opacity:1;" d="M 78.855469 147.824219 C 75.777344 145.171875 59.53125 139.324219 59.367188 139.265625 L 59.859375 137.890625 C 60.539062 138.132812 76.527344 143.890625 79.808594 146.714844 Z M 78.855469 147.824219 "/>
<path style=" stroke:none;fill-rule:nonzero;fill:rgb(0%,0%,0%);fill-opacity:1;" d="M 88.636719 166.957031 C 83.019531 160.25 69.332031 157.023438 69.195312 156.992188 L 69.523438 155.566406 C 70.105469 155.699219 83.828125 158.941406 89.757812 166.015625 Z M 88.636719 166.957031 "/>
<path style=" stroke:none;fill-rule:nonzero;fill:rgb(0%,0%,0%);fill-opacity:1;" d="M 85.265625 152.238281 C 71.941406 134.722656 63.316406 114.089844 60.207031 92.296875 C 57.917969 75.980469 59.652344 64.765625 59.671875 64.65625 L 60.671875 64.816406 C 60.652344 64.925781 58.941406 76.019531 61.214844 92.199219 C 64.308594 113.800781 72.863281 134.257812 86.070312 151.625 Z M 85.265625 152.238281 "/>
<path style=" stroke:none;fill-rule:nonzero;fill:rgb(0%,0%,0%);fill-opacity:1;" d="M 59.851562 66.078125 C 59 64.152344 58.726562 62.019531 59.058594 59.941406 C 59.289062 58.789062 60.550781 56.972656 61.621094 57.1875 C 62.6875 57.398438 63.265625 59.035156 62.929688 60.710938 C 62.445312 62.757812 61.375 64.621094 59.851562 66.078125 Z M 59.851562 66.078125 "/>
<path style=" stroke:none;fill-rule:nonzero;fill:rgb(0%,0%,0%);fill-opacity:1;" d="M 59.660156 71.695312 C 60.054688 69.835938 60.964844 68.121094 62.28125 66.75 C 63.039062 66.003906 64.890625 65.257812 65.546875 65.933594 C 66.203125 66.605469 65.765625 68.101562 64.660156 69.183594 C 63.257812 70.46875 61.527344 71.339844 59.660156 71.695312 Z M 59.660156 71.695312 "/>
<path style=" stroke:none;fill-rule:nonzero;fill:rgb(0%,0%,0%);fill-opacity:1;" d="M 60.175781 81.230469 C 60.609375 79.628906 61.546875 78.207031 62.851562 77.179688 C 63.59375 76.664062 65.328125 76.421875 65.890625 77.230469 C 66.453125 78.035156 65.96875 79.351562 64.894531 80.101562 C 63.484375 80.976562 61.828125 81.375 60.175781 81.230469 Z M 60.175781 81.230469 "/>
<path style=" stroke:none;fill-rule:nonzero;fill:rgb(0%,0%,0%);fill-opacity:1;" d="M 59.992188 71.359375 C 58.355469 71.550781 56.699219 71.207031 55.273438 70.378906 C 54.523438 69.882812 53.667969 68.371094 54.203125 67.554688 C 54.738281 66.738281 56.128906 66.699219 57.21875 67.417969 C 58.542969 68.398438 59.515625 69.78125 59.992188 71.359375 Z M 59.992188 71.359375 "/>
<path style=" stroke:none;fill-rule:nonzero;fill:rgb(0%,0%,0%);fill-opacity:1;" d="M 71.988281 129.894531 C 70.40625 130.660156 68.636719 130.949219 66.894531 130.726562 C 65.925781 130.566406 64.382812 129.558594 64.535156 128.65625 C 64.683594 127.757812 66.03125 127.230469 67.433594 127.464844 C 69.15625 127.816406 70.738281 128.660156 71.988281 129.894531 Z M 71.988281 129.894531 "/>
<path style=" stroke:none;fill-rule:nonzero;fill:rgb(0%,0%,0%);fill-opacity:1;" d="M 59.578125 81.234375 C 57.613281 81.292969 55.667969 80.78125 53.984375 79.761719 C 53.070312 79.15625 51.941406 77.425781 52.5 76.574219 C 53.058594 75.730469 54.675781 75.804688 56.007812 76.683594 C 57.613281 77.824219 58.851562 79.402344 59.578125 81.234375 Z M 59.578125 81.234375 "/>
<path style=" stroke:none;fill-rule:nonzero;fill:rgb(0%,0%,0%);fill-opacity:1;" d="M 60.222656 91.402344 C 60.222656 91.402344 57.230469 92.050781 55.019531 90.59375 C 54.21875 90.066406 53.371094 88.34375 54.03125 87.335938 C 54.691406 86.332031 56.246094 86.183594 57.410156 86.949219 C 59.621094 88.40625 60.222656 91.402344 60.222656 91.402344 Z M 60.222656 91.402344 "/>
<path style=" stroke:none;fill-rule:nonzero;fill:rgb(0%,0%,0%);fill-opacity:1;" d="M 60.953125 91.136719 C 60.953125 91.136719 61.101562 88.125 63.050781 86.234375 C 63.761719 85.542969 65.621094 85.019531 66.410156 85.835938 C 67.203125 86.652344 66.941406 88.183594 65.914062 89.183594 C 63.964844 91.074219 60.953125 91.136719 60.953125 91.136719 Z M 60.953125 91.136719 "/>
<path style=" stroke:none;fill-rule:nonzero;fill:rgb(0%,0%,0%);fill-opacity:1;" d="M 72.421875 130.140625 C 71.90625 128.453125 71.949219 126.644531 72.542969 124.980469 C 72.902344 123.980469 74.277344 122.324219 75.203125 122.410156 C 76.132812 122.496094 76.425781 123.839844 75.902344 125.292969 C 75.128906 127.15625 73.941406 128.8125 72.421875 130.140625 Z M 72.421875 130.140625 "/>
<path style=" stroke:none;fill-rule:nonzero;fill:rgb(0%,0%,0%);fill-opacity:1;" d="M 64.617188 110.601562 C 65.175781 109.242188 66.152344 108.09375 67.40625 107.324219 C 68.191406 106.8125 70.058594 106.269531 70.691406 106.679688 C 71.320312 107.089844 70.828125 108.066406 69.6875 108.804688 C 68.125 109.71875 66.40625 110.328125 64.617188 110.601562 Z M 64.617188 110.601562 "/>
<path style=" stroke:none;fill-rule:nonzero;fill:rgb(0%,0%,0%);fill-opacity:1;" d="M 62.019531 101.742188 C 60.679688 101.722656 59.390625 101.25 58.355469 100.402344 C 57.699219 99.878906 56.742188 98.414062 56.953125 97.71875 C 57.171875 97.019531 58.175781 97.113281 59.128906 97.871094 C 60.351562 98.949219 61.332031 100.265625 62.019531 101.742188 Z M 62.019531 101.742188 "/>
<path style=" stroke:none;fill-rule:nonzero;fill:rgb(0%,0%,0%);fill-opacity:1;" d="M 68.542969 120.953125 C 68.542969 120.953125 67.609375 117.898438 68.242188 115.621094 C 68.46875 114.796875 69.515625 113.910156 70.3125 114.578125 C 71.109375 115.242188 71.46875 116.832031 71.132812 118.035156 C 70.78125 119.363281 69.820312 120.445312 68.542969 120.953125 Z M 68.542969 120.953125 "/>
<path style=" stroke:none;fill-rule:nonzero;fill:rgb(0%,0%,0%);fill-opacity:1;" d="M 64.945312 110.894531 C 64.945312 110.894531 61.265625 111.503906 58.425781 110.492188 C 57.398438 110.128906 56.234375 108.859375 56.996094 108.074219 C 57.753906 107.289062 59.675781 107.113281 61.175781 107.644531 C 62.8125 108.183594 64.167969 109.351562 64.945312 110.894531 Z M 64.945312 110.894531 "/>
<path style=" stroke:none;fill-rule:nonzero;fill:rgb(0%,0%,0%);fill-opacity:1;" d="M 68.308594 121.496094 C 68.308594 121.496094 64.824219 122.066406 62.292969 121.058594 C 61.375 120.691406 60.433594 119.441406 61.222656 118.675781 C 62.015625 117.910156 63.824219 117.753906 65.15625 118.285156 C 66.625 118.839844 67.777344 120.015625 68.308594 121.496094 Z M 68.308594 121.496094 "/>
<path style=" stroke:none;fill-rule:nonzero;fill:rgb(0%,0%,0%);fill-opacity:1;" d="M 76.65625 138.402344 C 76.429688 136.945312 76.675781 135.457031 77.359375 134.152344 C 77.777344 133.3125 79.113281 131.886719 79.875 131.917969 C 80.640625 131.945312 80.726562 133.042969 80.121094 134.261719 C 79.238281 135.847656 78.0625 137.253906 76.65625 138.402344 Z M 76.65625 138.402344 "/>
<path style=" stroke:none;fill-rule:nonzero;fill:rgb(0%,0%,0%);fill-opacity:1;" d="M 73.050781 97.449219 C 73.050781 97.449219 73.320312 94.488281 74.660156 92.558594 C 75.148438 91.863281 76.355469 91.277344 76.808594 92.046875 C 77.257812 92.816406 77.007812 94.332031 76.296875 95.347656 C 75.554688 96.46875 74.375 97.230469 73.050781 97.449219 Z M 73.050781 97.449219 "/>
<path style=" stroke:none;fill-rule:nonzero;fill:rgb(0%,0%,0%);fill-opacity:1;" d="M 62.480469 102.285156 C 62.726562 100.453125 63.457031 98.71875 64.59375 97.265625 C 65.289062 96.359375 67.113281 95 67.867188 95.269531 C 68.628906 95.535156 68.355469 96.902344 67.339844 98.222656 C 65.988281 99.871094 64.339844 101.246094 62.480469 102.285156 Z M 62.480469 102.285156 "/>
<path style=" stroke:none;fill-rule:nonzero;fill:rgb(0%,0%,0%);fill-opacity:1;" d="M 61.394531 181.664062 C 72.390625 195.199219 88.023438 202.339844 102.910156 202.1875 C 106.105469 187.632812 102.316406 170.859375 91.320312 157.324219 C 80.324219 143.785156 64.695312 136.640625 49.804688 136.800781 C 46.609375 151.355469 50.402344 168.125 61.394531 181.664062 Z M 61.394531 181.664062 "/>
<path style=" stroke:none;fill-rule:nonzero;fill:rgb(0%,0%,0%);fill-opacity:1;" d="M 53.558594 142.308594 L 54.070312 141.890625 L 100.972656 199.640625 L 100.460938 200.058594 Z M 53.558594 142.308594 "/>
<path style=" stroke:none;fill-rule:nonzero;fill:rgb(0%,0%,0%);fill-opacity:1;" d="M 63.21875 153.929688 L 64.417969 142.296875 L 65.074219 142.367188 L 63.878906 153.996094 Z M 63.21875 153.929688 "/>
<path style=" stroke:none;fill-rule:nonzero;fill:rgb(0%,0%,0%);fill-opacity:1;" d="M 71.21875 163.777344 L 72.691406 149.441406 L 73.351562 149.511719 L 71.875 163.84375 Z M 71.21875 163.777344 "/>
<path style=" stroke:none;fill-rule:nonzero;fill:rgb(0%,0%,0%);fill-opacity:1;" d="M 79.214844 173.625 L 81.683594 149.660156 L 82.34375 149.726562 L 79.875 173.691406 Z M 79.214844 173.625 "/>
<path style=" stroke:none;fill-rule:nonzero;fill:rgb(0%,0%,0%);fill-opacity:1;" d="M 87.214844 183.46875 L 89.617188 160.15625 L 90.273438 160.222656 L 87.875 183.535156 Z M 87.214844 183.46875 "/>
<path style=" stroke:none;fill-rule:nonzero;fill:rgb(0%,0%,0%);fill-opacity:1;" d="M 95.210938 193.316406 L 96.546875 180.335938 L 97.207031 180.402344 L 95.867188 193.382812 Z M 95.210938 193.316406 "/>
<path style=" stroke:none;fill-rule:nonzero;fill:rgb(0%,0%,0%);fill-opacity:1;" d="M 50.777344 152.023438 L 50.847656 151.363281 L 62.46875 152.566406 L 62.398438 153.222656 Z M 50.777344 152.023438 "/>
<path style=" stroke:none;fill-rule:nonzero;fill:rgb(0%,0%,0%);fill-opacity:1;" d="M 52.277344 161.199219 L 52.34375 160.539062 L 70.464844 162.414062 L 70.398438 163.070312 Z M 52.277344 161.199219 "/>
<path style=" stroke:none;fill-rule:nonzero;fill:rgb(0%,0%,0%);fill-opacity:1;" d="M 55.714844 170.574219 L 55.785156 169.917969 L 78.464844 172.261719 L 78.394531 172.917969 Z M 55.714844 170.574219 "/>
<path style=" stroke:none;fill-rule:nonzero;fill:rgb(0%,0%,0%);fill-opacity:1;" d="M 63.097656 180.359375 L 63.164062 179.699219 L 86.460938 182.105469 L 86.394531 182.765625 Z M 63.097656 180.359375 "/>
<path style=" stroke:none;fill-rule:nonzero;fill:rgb(0%,0%,0%);fill-opacity:1;" d="M 74.375 190.542969 L 74.441406 189.886719 L 94.457031 191.953125 L 94.390625 192.613281 Z M 74.375 190.542969 "/>
<path style=" stroke:none;fill-rule:nonzero;fill:rgb(0%,0%,0%);fill-opacity:1;" d="M 67.804688 194.613281 C 67.804688 194.613281 61.640625 196.0625 58.894531 198.605469 C 55.5 201.742188 55.90625 205.917969 55.910156 206.984375 C 57.320312 207.410156 58.808594 207.519531 60.265625 207.300781 C 61.414062 207.148438 64.53125 206.082031 66.230469 203.761719 C 67.929688 201.449219 68.371094 200.628906 68.429688 199.113281 C 68.488281 197.6875 67.464844 195.285156 67.804688 194.613281 Z M 67.804688 194.613281 "/>
<path style=" stroke:none;fill-rule:nonzero;fill:rgb(0%,0%,0%);fill-opacity:1;" d="M 61.117188 194.332031 C 61.117188 194.332031 56.019531 194.65625 53.050781 193.636719 C 49.542969 192.429688 47.0625 189.074219 47.0625 189.074219 C 48.015625 189.183594 48.96875 189.242188 49.925781 189.253906 C 51.394531 189.226562 55.574219 188.023438 57.9375 189.21875 C 59.449219 189.988281 60.757812 190.753906 61.117188 194.332031 Z M 61.117188 194.332031 "/>
<path style=" stroke:none;fill-rule:nonzero;fill:rgb(0%,0%,0%);fill-opacity:1;" d="M 81.417969 195.910156 C 81.417969 195.910156 78.050781 197.582031 76.140625 199.703125 C 74.226562 201.828125 72.277344 205.316406 73.527344 210.464844 C 74.074219 209.8125 74.722656 209.257812 75.453125 208.820312 C 76.492188 208.253906 80.175781 206.855469 81.933594 203.914062 C 82.746094 202.742188 83.125 201.324219 83 199.902344 C 82.945312 198.613281 81.261719 196.445312 81.417969 195.910156 Z M 81.417969 195.910156 "/>
<path style=" stroke:none;fill-rule:nonzero;fill:rgb(0%,0%,0%);fill-opacity:1;" d="M 69.996094 193.304688 C 69.808594 192.839844 69.46875 192.453125 69.035156 192.203125 C 67.457031 191.40625 66.425781 191.421875 65.546875 190.332031 C 64.875 189.324219 64.359375 188.222656 64.015625 187.0625 C 64.015625 187.0625 67.566406 186.722656 68.882812 188.332031 C 70.167969 189.90625 70.53125 190.738281 69.996094 193.304688 Z M 69.996094 193.304688 "/>
<path style=" stroke:none;fill-rule:nonzero;fill:rgb(0%,0%,0%);fill-opacity:1;" d="M 51.316406 197.820312 C 51.316406 197.820312 49.417969 197.140625 46.796875 198.605469 C 44.183594 200.066406 43.777344 201.207031 43.820312 201.453125 C 43.863281 201.699219 44.535156 201.851562 46.195312 201.640625 C 47.601562 201.460938 48.652344 201.277344 49.945312 200.105469 C 50.664062 199.53125 51.148438 198.722656 51.316406 197.820312 Z M 51.316406 197.820312 "/>
<path style=" stroke:none;fill-rule:nonzero;fill:rgb(0%,0%,0%);fill-opacity:1;" d="M 82.664062 195.050781 C 85.347656 195.660156 87.984375 196.457031 90.554688 197.433594 C 90.453125 197.617188 90.367188 197.8125 90.300781 198.015625 C 87.765625 197.054688 85.167969 196.269531 82.523438 195.667969 C 74.78125 193.914062 63.003906 192.992188 50.898438 198.589844 L 50.636719 198.011719 C 62.902344 192.339844 74.824219 193.269531 82.664062 195.050781 Z M 82.664062 195.050781 "/>
<path style=" stroke:none;fill-rule:nonzero;fill:rgb(0%,0%,0%);fill-opacity:1;" d="M 89.148438 5.960938 L 411.511719 5.960938 L 411.511719 209.5 L 89.148438 209.5 Z M 89.148438 5.960938 "/>
<path style=" stroke:none;fill-rule:nonzero;fill:rgb(0%,0%,0%);fill-opacity:1;" d="M 89.148438 5.960938 L 411.511719 5.960938 L 411.511719 16.832031 L 89.148438 16.832031 Z M 89.148438 5.960938 "/>
<path style=" stroke:none;fill-rule:nonzero;fill:rgb(0%,0%,0%);fill-opacity:1;" d="M 97.113281 11.394531 C 97.117188 12.597656 96.144531 13.570312 94.945312 13.574219 C 93.746094 13.574219 92.769531 12.601562 92.769531 11.402344 C 92.765625 10.199219 93.738281 9.226562 94.941406 9.222656 C 96.136719 9.226562 97.109375 10.195312 97.113281 11.394531 Z M 97.113281 11.394531 "/>
<path style=" stroke:none;fill-rule:nonzero;fill:rgb(0%,0%,0%);fill-opacity:1;" d="M 103.992188 11.394531 C 103.996094 12.597656 103.023438 13.570312 101.820312 13.574219 C 100.621094 13.574219 99.648438 12.601562 99.648438 11.398438 C 99.648438 10.199219 100.621094 9.222656 101.820312 9.222656 C 103.019531 9.226562 103.988281 10.195312 103.992188 11.394531 Z M 103.992188 11.394531 "/>
<path style=" stroke:none;fill-rule:nonzero;fill:rgb(0%,0%,0%);fill-opacity:1;" d="M 110.871094 11.394531 C 110.871094 12.597656 109.898438 13.570312 108.699219 13.570312 C 107.5 13.574219 106.527344 12.601562 106.527344 11.398438 C 106.523438 10.199219 107.496094 9.222656 108.699219 9.222656 C 109.894531 9.226562 110.867188 10.195312 110.871094 11.394531 Z M 110.871094 11.394531 "/>
<path style=" stroke:none;fill-rule:nonzero;fill:rgb(0%,0%,0%);fill-opacity:1;" d="M 139.683594 56.148438 L 243.484375 56.148438 L 243.484375 120.242188 L 139.683594 120.242188 Z M 139.683594 56.148438 "/>
<path style=" stroke:none;fill-rule:nonzero;fill:rgb(0%,0%,0%);fill-opacity:1;" d="M 139.628906 118.039062 L 243.484375 118.039062 L 243.484375 124.257812 L 139.628906 124.257812 Z M 139.628906 118.039062 "/>
<path style=" stroke:none;fill-rule:nonzero;fill:rgb(0%,0%,0%);fill-opacity:1;" d="M 146.113281 108.472656 L 237.054688 108.472656 L 237.054688 109.28125 L 146.113281 109.28125 Z M 146.113281 108.472656 "/>
<path style=" stroke:none;fill-rule:nonzero;fill:rgb(0%,0%,0%);fill-opacity:1;" d="M 158.265625 63.816406 L 234.136719 63.816406 L 234.136719 65.28125 L 158.265625 65.28125 Z M 158.265625 63.816406 "/>
<path style=" stroke:none;fill-rule:nonzero;fill:rgb(0%,0%,0%);fill-opacity:1;" d="M 158.265625 67.761719 L 189.75 67.761719 L 189.75 69.226562 L 158.265625 69.226562 Z M 158.265625 67.761719 "/>
<path style=" stroke:none;fill-rule:nonzero;fill:rgb(0%,0%,0%);fill-opacity:1;" d="M 153.476562 105.527344 C 161.046875 103.261719 165.675781 95.804688 174.097656 96.414062 C 181.808594 96.976562 188.6875 101.671875 196.597656 99.953125 C 203.976562 98.351562 208.671875 93.742188 213.660156 88.523438 C 219.691406 82.316406 228.042969 78.929688 236.6875 79.183594 L 236.6875 78.085938 C 229.980469 77.902344 223.378906 79.820312 217.808594 83.566406 C 214.894531 85.554688 212.691406 88.066406 210.332031 90.65625 C 206.957031 94.34375 202.648438 97.046875 197.863281 98.488281 C 188.953125 101.109375 181.300781 95.207031 172.53125 95.246094 C 164.605469 95.28125 160.398438 102.3125 153.183594 104.46875 C 153.183594 104.46875 152.796875 105.730469 153.476562 105.527344 Z M 153.476562 105.527344 "/>
<path style=" stroke:none;fill-rule:nonzero;fill:rgb(0%,0%,0%);fill-opacity:1;" d="M 153.148438 108.300781 C 159.492188 109.757812 162.15625 103.402344 166.058594 99.765625 C 173.585938 92.75 184.9375 91.871094 194.394531 94.554688 C 201.042969 96.445312 207.882812 98.722656 214.160156 94.578125 C 217.355469 92.410156 220.375 89.992188 223.199219 87.355469 C 227.398438 83.507812 231.710938 78.273438 238.191406 79.636719 L 238.191406 78.542969 C 231.636719 77.164062 227.40625 81.921875 223.03125 86.023438 C 219.449219 89.378906 215.019531 93.800781 210.277344 95.335938 C 205.105469 97.007812 199.648438 94.90625 194.6875 93.496094 C 187.5 91.457031 180.109375 91.394531 173.109375 94.214844 C 170.445312 95.246094 167.96875 96.714844 165.78125 98.558594 C 162.125 101.738281 159.371094 108.605469 153.441406 107.242188 Z M 153.148438 108.300781 "/>
<path style=" stroke:none;fill-rule:nonzero;fill:rgb(0%,0%,0%);fill-opacity:1;" d="M 152.953125 62.351562 L 153.761719 62.351562 L 153.761719 113.523438 L 152.953125 113.523438 Z M 152.953125 62.351562 "/>
<path style=" stroke:none;fill-rule:nonzero;fill:rgb(0%,0%,0%);fill-opacity:1;" d="M 140.113281 132.742188 L 242.300781 132.742188 C 242.957031 132.742188 243.484375 133.273438 243.484375 133.925781 L 243.484375 186.398438 C 243.484375 187.050781 242.957031 187.582031 242.300781 187.582031 L 140.113281 187.582031 C 139.460938 187.582031 138.929688 187.050781 138.929688 186.398438 L 138.929688 133.925781 C 138.929688 133.273438 139.460938 132.742188 140.113281 132.742188 Z M 140.113281 132.742188 "/>
<path style=" stroke:none;fill-rule:nonzero;fill:rgb(0%,0%,0%);fill-opacity:1;" d="M 144.164062 137.179688 L 150.242188 137.179688 L 150.242188 140.269531 L 144.164062 140.269531 Z M 144.164062 137.179688 "/>
<path style=" stroke:none;fill-rule:nonzero;fill:rgb(0%,0%,0%);fill-opacity:1;" d="M 190.199219 142.128906 L 236.90625 142.128906 L 236.90625 145.214844 L 190.199219 145.214844 Z M 190.199219 142.128906 "/>
<path style=" stroke:none;fill-rule:nonzero;fill:rgb(0%,0%,0%);fill-opacity:1;" d="M 190.199219 150.832031 L 236.90625 150.832031 L 236.90625 153.917969 L 190.199219 153.917969 Z M 190.199219 150.832031 "/>
<path style=" stroke:none;fill-rule:nonzero;fill:rgb(0%,0%,0%);fill-opacity:1;" d="M 190.199219 159.539062 L 236.90625 159.539062 L 236.90625 162.625 L 190.199219 162.625 Z M 190.199219 159.539062 "/>
<path style=" stroke:none;fill-rule:nonzero;fill:rgb(0%,0%,0%);fill-opacity:1;" d="M 190.199219 168.246094 L 216.960938 168.246094 L 216.960938 171.332031 L 190.199219 171.332031 Z M 190.199219 168.246094 "/>
<path style=" stroke:none;fill-rule:nonzero;fill:rgb(0%,0%,0%);fill-opacity:1;" d="M 144.164062 145.707031 L 150.242188 145.707031 L 150.242188 148.792969 L 144.164062 148.792969 Z M 144.164062 145.707031 "/>
<path style=" stroke:none;fill-rule:nonzero;fill:rgb(0%,0%,0%);fill-opacity:1;" d="M 144.164062 154.230469 L 150.242188 154.230469 L 150.242188 157.316406 L 144.164062 157.316406 Z M 144.164062 154.230469 "/>
<path style=" stroke:none;fill-rule:nonzero;fill:rgb(0%,0%,0%);fill-opacity:1;" d="M 144.164062 162.753906 L 150.242188 162.753906 L 150.242188 165.839844 L 144.164062 165.839844 Z M 144.164062 162.753906 "/>
<path style=" stroke:none;fill-rule:nonzero;fill:rgb(0%,0%,0%);fill-opacity:1;" d="M 144.164062 171.277344 L 150.242188 171.277344 L 150.242188 174.363281 L 144.164062 174.363281 Z M 144.164062 171.277344 "/>
<path style=" stroke:none;fill-rule:nonzero;fill:rgb(0%,0%,0%);fill-opacity:1;" d="M 144.164062 179.804688 L 150.242188 179.804688 L 150.242188 182.890625 L 144.164062 182.890625 Z M 144.164062 179.804688 "/>
<path style=" stroke:none;fill-rule:nonzero;fill:rgb(0%,0%,0%);fill-opacity:1;" d="M 170.769531 138.050781 L 170.769531 152.367188 L 170.777344 152.375 L 180.875 162.507812 C 183.558594 159.832031 185.070312 156.203125 185.078125 152.410156 C 185.078125 152.398438 185.078125 152.382812 185.078125 152.367188 C 185.078125 144.460938 178.671875 138.050781 170.769531 138.050781 Z M 170.769531 138.050781 "/>
<path style=" stroke:none;fill-rule:nonzero;fill:rgb(0%,0%,0%);fill-opacity:1;" d="M 159.972656 142.230469 C 157.285156 144.90625 155.773438 148.546875 155.769531 152.339844 L 170.074219 152.375 L 170.074219 138.050781 C 166.289062 138.046875 162.652344 139.550781 159.972656 142.230469 Z M 159.972656 142.230469 "/>
<path style=" stroke:none;fill-rule:nonzero;fill:rgb(0%,0%,0%);fill-opacity:1;" d="M 170.082031 153.070312 L 170.074219 153.070312 L 155.769531 153.035156 C 155.769531 153.046875 155.769531 153.054688 155.769531 153.0625 C 155.769531 158.851562 159.25 164.070312 164.589844 166.289062 C 169.933594 168.507812 176.085938 167.289062 180.179688 163.203125 Z M 170.082031 153.070312 "/>
<path style=" stroke:none;fill-rule:nonzero;fill:rgb(0%,0%,0%);fill-opacity:1;" d="M 249.421875 113.3125 L 274.699219 113.3125 L 274.699219 141.113281 L 249.421875 141.113281 Z M 249.421875 113.3125 "/>
<path style=" stroke:none;fill-rule:nonzero;fill:rgb(0%,0%,0%);fill-opacity:1;" d="M 262.632812 115.164062 C 259.03125 115.164062 256.113281 118.085938 256.113281 121.691406 C 256.113281 125.296875 259.03125 128.21875 262.636719 128.21875 C 266.238281 128.21875 269.15625 125.296875 269.15625 121.691406 L 262.632812 121.691406 Z M 262.632812 115.164062 "/>
<path style=" stroke:none;fill-rule:nonzero;fill:rgb(0%,0%,0%);fill-opacity:1;" d="M 253.710938 129.652344 L 271.558594 129.652344 L 271.558594 131.371094 L 253.710938 131.371094 Z M 253.710938 129.652344 "/>
<path style=" stroke:none;fill-rule:nonzero;fill:rgb(0%,0%,0%);fill-opacity:1;" d="M 253.710938 133.09375 L 271.558594 133.09375 L 271.558594 134.816406 L 253.710938 134.816406 Z M 253.710938 133.09375 "/>
<path style=" stroke:none;fill-rule:nonzero;fill:rgb(0%,0%,0%);fill-opacity:1;" d="M 253.710938 136.535156 L 265.101562 136.535156 L 265.101562 138.257812 L 253.710938 138.257812 Z M 253.710938 136.535156 "/>
<path style=" stroke:none;fill-rule:nonzero;fill:rgb(0%,0%,0%);fill-opacity:1;" d="M 312.792969 113.816406 L 338.070312 113.816406 L 338.070312 141.617188 L 312.792969 141.617188 Z M 312.792969 113.816406 "/>
<path style=" stroke:none;fill-rule:nonzero;fill:rgb(0%,0%,0%);fill-opacity:1;" d="M 317.082031 116.746094 L 324.53125 116.746094 L 324.53125 126.585938 L 317.082031 126.585938 Z M 317.082031 116.746094 "/>
<path style=" stroke:none;fill-rule:nonzero;fill:rgb(0%,0%,0%);fill-opacity:1;" d="M 317.082031 128.921875 L 334.925781 128.921875 L 334.925781 130.644531 L 317.082031 130.644531 Z M 317.082031 128.921875 "/>
<path style=" stroke:none;fill-rule:nonzero;fill:rgb(0%,0%,0%);fill-opacity:1;" d="M 317.082031 132.980469 L 334.925781 132.980469 L 334.925781 134.703125 L 317.082031 134.703125 Z M 317.082031 132.980469 "/>
<path style=" stroke:none;fill-rule:nonzero;fill:rgb(0%,0%,0%);fill-opacity:1;" d="M 317.082031 137.039062 L 328.472656 137.039062 L 328.472656 138.761719 L 317.082031 138.761719 Z M 317.082031 137.039062 "/>
<path style=" stroke:none;fill-rule:nonzero;fill:rgb(0%,0%,0%);fill-opacity:1;" d="M 326.003906 116.746094 L 334.925781 116.746094 L 334.925781 118.46875 L 326.003906 118.46875 Z M 326.003906 116.746094 "/>
<path style=" stroke:none;fill-rule:nonzero;fill:rgb(0%,0%,0%);fill-opacity:1;" d="M 326.003906 120.804688 L 334.925781 120.804688 L 334.925781 122.527344 L 326.003906 122.527344 Z M 326.003906 120.804688 "/>
<path style=" stroke:none;fill-rule:nonzero;fill:rgb(0%,0%,0%);fill-opacity:1;" d="M 326.003906 124.863281 L 334.925781 124.863281 L 334.925781 126.585938 L 326.003906 126.585938 Z M 326.003906 124.863281 "/>
<path style=" stroke:none;fill-rule:nonzero;fill:rgb(0%,0%,0%);fill-opacity:1;" d="M 344.480469 114.066406 L 369.753906 114.066406 L 369.753906 141.867188 L 344.480469 141.867188 Z M 344.480469 114.066406 "/>
<path style=" stroke:none;fill-rule:nonzero;fill:rgb(0%,0%,0%);fill-opacity:1;" d="M 357.691406 115.917969 C 354.089844 115.917969 351.167969 118.839844 351.167969 122.445312 C 351.167969 126.050781 354.089844 128.972656 357.691406 128.972656 C 361.292969 128.972656 364.210938 126.050781 364.210938 122.445312 L 357.691406 122.445312 Z M 357.691406 115.917969 "/>
<path style=" stroke:none;fill-rule:nonzero;fill:rgb(0%,0%,0%);fill-opacity:1;" d="M 348.769531 130.40625 L 366.613281 130.40625 L 366.613281 132.128906 L 348.769531 132.128906 Z M 348.769531 130.40625 "/>
<path style=" stroke:none;fill-rule:nonzero;fill:rgb(0%,0%,0%);fill-opacity:1;" d="M 348.769531 133.847656 L 366.613281 133.847656 L 366.613281 135.570312 L 348.769531 135.570312 Z M 348.769531 133.847656 "/>
<path style=" stroke:none;fill-rule:nonzero;fill:rgb(0%,0%,0%);fill-opacity:1;" d="M 348.769531 137.292969 L 360.15625 137.292969 L 360.15625 139.011719 L 348.769531 139.011719 Z M 348.769531 137.292969 "/>
<path style=" stroke:none;fill-rule:nonzero;fill:rgb(0%,0%,0%);fill-opacity:1;" d="M 281.109375 113.5625 L 306.386719 113.5625 L 306.386719 141.367188 L 281.109375 141.367188 Z M 281.109375 113.5625 "/>
<path style=" stroke:none;fill-rule:nonzero;fill:rgb(0%,0%,0%);fill-opacity:1;" d="M 282.664062 136.789062 L 305.671875 136.789062 L 305.671875 138.507812 L 282.664062 138.507812 Z M 282.664062 136.789062 "/>
<path style=" stroke:none;fill-rule:nonzero;fill:rgb(0%,0%,0%);fill-opacity:1;" d="M 283.597656 129.898438 L 286.644531 129.898438 L 286.644531 135.675781 L 283.597656 135.675781 Z M 283.597656 129.898438 "/>
<path style=" stroke:none;fill-rule:nonzero;fill:rgb(0%,0%,0%);fill-opacity:1;" d="M 288.089844 125.0625 L 291.136719 125.0625 L 291.136719 135.675781 L 288.089844 135.675781 Z M 288.089844 125.0625 "/>
<path style=" stroke:none;fill-rule:nonzero;fill:rgb(0%,0%,0%);fill-opacity:1;" d="M 292.582031 118.390625 L 295.628906 118.390625 L 295.628906 135.675781 L 292.582031 135.675781 Z M 292.582031 118.390625 "/>
<path style=" stroke:none;fill-rule:nonzero;fill:rgb(0%,0%,0%);fill-opacity:1;" d="M 297.074219 122.6875 L 300.121094 122.6875 L 300.121094 135.675781 L 297.074219 135.675781 Z M 297.074219 122.6875 "/>
<path style=" stroke:none;fill-rule:nonzero;fill:rgb(0%,0%,0%);fill-opacity:1;" d="M 301.566406 118.390625 L 304.613281 118.390625 L 304.613281 135.675781 L 301.566406 135.675781 Z M 301.566406 118.390625 "/>
<path style=" stroke:none;fill-rule:nonzero;fill:rgb(0%,0%,0%);fill-opacity:1;" d="M 254.457031 146.308594 L 367.761719 146.308594 C 371.210938 146.308594 374.007812 149.105469 374.007812 152.558594 L 374.007812 181.105469 C 374.007812 184.554688 371.210938 187.355469 367.761719 187.355469 L 254.457031 187.355469 C 251.007812 187.355469 248.210938 184.554688 248.210938 181.105469 L 248.210938 152.558594 C 248.210938 149.105469 251.007812 146.308594 254.457031 146.308594 Z M 254.457031 146.308594 "/>
<path style=" stroke:none;fill-rule:nonzero;fill:rgb(0%,0%,0%);fill-opacity:1;" d="M 368.101562 146.308594 L 254.117188 146.308594 C 250.855469 146.308594 248.210938 148.953125 248.210938 152.21875 L 248.210938 156.011719 L 374.007812 156.011719 L 374.007812 152.21875 C 374.007812 148.953125 371.363281 146.308594 368.101562 146.308594 Z M 368.101562 146.308594 "/>
<path style=" stroke:none;fill-rule:nonzero;fill:rgb(0%,0%,0%);fill-opacity:1;" d="M 276.421875 172.1875 C 276.421875 177.5 272.121094 181.804688 266.816406 181.804688 C 261.507812 181.804688 257.207031 177.5 257.207031 172.1875 C 257.207031 166.878906 261.507812 162.574219 266.816406 162.574219 C 272.121094 162.574219 276.421875 166.878906 276.421875 172.1875 Z M 276.421875 172.1875 "/>
<path style=" stroke:none;fill-rule:nonzero;fill:rgb(0%,0%,0%);fill-opacity:1;" d="M 281.601562 163.363281 L 363.429688 163.363281 L 363.429688 165.953125 L 281.601562 165.953125 Z M 281.601562 163.363281 "/>
<path style=" stroke:none;fill-rule:nonzero;fill:rgb(0%,0%,0%);fill-opacity:1;" d="M 281.601562 170.90625 L 363.429688 170.90625 L 363.429688 173.496094 L 281.601562 173.496094 Z M 281.601562 170.90625 "/>
<path style=" stroke:none;fill-rule:nonzero;fill:rgb(0%,0%,0%);fill-opacity:1;" d="M 281.601562 178.445312 L 312.285156 178.445312 L 312.285156 181.035156 L 281.601562 181.035156 Z M 281.601562 178.445312 "/>
<path style=" stroke:none;fill-rule:nonzero;fill:rgb(0%,0%,0%);fill-opacity:1;" d="M 259.664062 151.160156 C 259.664062 151.839844 259.113281 152.390625 258.433594 152.390625 C 257.753906 152.390625 257.207031 151.839844 257.207031 151.160156 C 257.207031 150.480469 257.753906 149.929688 258.433594 149.929688 C 259.113281 149.929688 259.664062 150.480469 259.664062 151.160156 Z M 259.664062 151.160156 "/>
<path style=" stroke:none;fill-rule:nonzero;fill:rgb(0%,0%,0%);fill-opacity:1;" d="M 265 151.160156 C 265 151.839844 264.453125 152.390625 263.773438 152.390625 C 263.09375 152.390625 262.542969 151.839844 262.542969 151.160156 C 262.542969 150.480469 263.09375 149.929688 263.773438 149.929688 C 264.449219 149.929688 265 150.480469 265 151.160156 Z M 265 151.160156 "/>
<path style=" stroke:none;fill-rule:nonzero;fill:rgb(0%,0%,0%);fill-opacity:1;" d="M 270.339844 151.160156 C 270.339844 151.839844 269.789062 152.390625 269.109375 152.390625 C 268.433594 152.390625 267.882812 151.839844 267.882812 151.160156 C 267.882812 150.480469 268.433594 149.929688 269.109375 149.929688 C 269.789062 149.929688 270.339844 150.480469 270.339844 151.160156 Z M 270.339844 151.160156 "/>
<path style=" stroke:none;fill-rule:nonzero;fill:rgb(0%,0%,0%);fill-opacity:1;" d="M 250.945312 55.992188 L 364.902344 55.992188 C 366.335938 55.992188 367.5 57.15625 367.5 58.59375 L 367.5 104.351562 C 367.5 105.789062 366.335938 106.953125 364.902344 106.953125 L 250.945312 106.953125 C 249.507812 106.953125 248.34375 105.789062 248.34375 104.351562 L 248.34375 58.59375 C 248.34375 57.15625 249.507812 55.992188 250.945312 55.992188 Z M 250.945312 55.992188 "/>
<path style=" stroke:none;fill-rule:nonzero;fill:rgb(0%,0%,0%);fill-opacity:1;" d="M 255.230469 63.070312 L 257.402344 63.070312 L 257.402344 99.875 L 255.230469 99.875 Z M 255.230469 63.070312 "/>
<path style=" stroke:none;fill-rule:nonzero;fill:rgb(0%,0%,0%);fill-opacity:1;" d="M 260.800781 63.070312 L 262.96875 63.070312 L 262.96875 99.875 L 260.800781 99.875 Z M 260.800781 63.070312 "/>
<path style=" stroke:none;fill-rule:nonzero;fill:rgb(0%,0%,0%);fill-opacity:1;" d="M 266.367188 63.070312 L 268.539062 63.070312 L 268.539062 99.875 L 266.367188 99.875 Z M 266.367188 63.070312 "/>
<path style=" stroke:none;fill-rule:nonzero;fill:rgb(0%,0%,0%);fill-opacity:1;" d="M 271.9375 63.070312 L 274.105469 63.070312 L 274.105469 99.875 L 271.9375 99.875 Z M 271.9375 63.070312 "/>
<path style=" stroke:none;fill-rule:nonzero;fill:rgb(0%,0%,0%);fill-opacity:1;" d="M 277.507812 63.070312 L 279.675781 63.070312 L 279.675781 99.875 L 277.507812 99.875 Z M 277.507812 63.070312 "/>
<path style=" stroke:none;fill-rule:nonzero;fill:rgb(0%,0%,0%);fill-opacity:1;" d="M 283.074219 63.070312 L 285.246094 63.070312 L 285.246094 99.875 L 283.074219 99.875 Z M 283.074219 63.070312 "/>
<path style=" stroke:none;fill-rule:nonzero;fill:rgb(0%,0%,0%);fill-opacity:1;" d="M 255.230469 83.675781 L 257.402344 83.675781 L 257.402344 99.875 L 255.230469 99.875 Z M 255.230469 83.675781 "/>
<path style=" stroke:none;fill-rule:nonzero;fill:rgb(0%,0%,0%);fill-opacity:1;" d="M 260.800781 76.945312 L 262.96875 76.945312 L 262.96875 99.875 L 260.800781 99.875 Z M 260.800781 76.945312 "/>
<path style=" stroke:none;fill-rule:nonzero;fill:rgb(0%,0%,0%);fill-opacity:1;" d="M 266.367188 73.523438 L 268.539062 73.523438 L 268.539062 99.875 L 266.367188 99.875 Z M 266.367188 73.523438 "/>
<path style=" stroke:none;fill-rule:nonzero;fill:rgb(0%,0%,0%);fill-opacity:1;" d="M 271.9375 76.945312 L 274.105469 76.945312 L 274.105469 99.875 L 271.9375 99.875 Z M 271.9375 76.945312 "/>
<path style=" stroke:none;fill-rule:nonzero;fill:rgb(0%,0%,0%);fill-opacity:1;" d="M 277.507812 70.214844 L 279.675781 70.214844 L 279.675781 99.875 L 277.507812 99.875 Z M 277.507812 70.214844 "/>
<path style=" stroke:none;fill-rule:nonzero;fill:rgb(0%,0%,0%);fill-opacity:1;" d="M 283.074219 66.5625 L 285.246094 66.5625 L 285.246094 99.875 L 283.074219 99.875 Z M 283.074219 66.5625 "/>
<path style=" stroke:none;fill-rule:nonzero;fill:rgb(0%,0%,0%);fill-opacity:1;" d="M 310 69.3125 C 310 72.636719 307.308594 75.332031 303.984375 75.332031 C 300.664062 75.332031 297.972656 72.636719 297.972656 69.3125 C 297.972656 65.988281 300.664062 63.292969 303.984375 63.292969 C 307.308594 63.292969 310 65.988281 310 69.3125 Z M 310 69.3125 "/>
<path style=" stroke:none;fill-rule:nonzero;fill:rgb(0%,0%,0%);fill-opacity:1;" d="M 313.242188 64.246094 L 361.890625 64.246094 L 361.890625 65.867188 L 313.242188 65.867188 Z M 313.242188 64.246094 "/>
<path style=" stroke:none;fill-rule:nonzero;fill:rgb(0%,0%,0%);fill-opacity:1;" d="M 313.242188 68.964844 L 361.890625 68.964844 L 361.890625 70.585938 L 313.242188 70.585938 Z M 313.242188 68.964844 "/>
<path style=" stroke:none;fill-rule:nonzero;fill:rgb(0%,0%,0%);fill-opacity:1;" d="M 313.242188 73.6875 L 333.621094 73.6875 L 333.621094 75.308594 L 313.242188 75.308594 Z M 313.242188 73.6875 "/>
<path style=" stroke:none;fill-rule:nonzero;fill:rgb(0%,0%,0%);fill-opacity:1;" d="M 310 92.585938 C 310 95.910156 307.308594 98.605469 303.984375 98.605469 C 300.664062 98.605469 297.972656 95.910156 297.972656 92.585938 C 297.972656 89.257812 300.664062 86.5625 303.984375 86.5625 C 307.308594 86.5625 310 89.257812 310 92.585938 Z M 310 92.585938 "/>
<path style=" stroke:none;fill-rule:nonzero;fill:rgb(0%,0%,0%);fill-opacity:1;" d="M 313.242188 87.515625 L 361.890625 87.515625 L 361.890625 89.136719 L 313.242188 89.136719 Z M 313.242188 87.515625 "/>
<path style=" stroke:none;fill-rule:nonzero;fill:rgb(0%,0%,0%);fill-opacity:1;" d="M 313.242188 92.238281 L 361.890625 92.238281 L 361.890625 93.859375 L 313.242188 93.859375 Z M 313.242188 92.238281 "/>
<path style=" stroke:none;fill-rule:nonzero;fill:rgb(0%,0%,0%);fill-opacity:1;" d="M 313.242188 96.957031 L 333.621094 96.957031 L 333.621094 98.578125 L 313.242188 98.578125 Z M 313.242188 96.957031 "/>
<path style=" stroke:none;fill-rule:nonzero;fill:rgb(0%,0%,0%);fill-opacity:1;" d="M 420.476562 78.640625 C 420.476562 78.640625 418.203125 76.011719 418.15625 72.730469 C 418.136719 71.539062 419.101562 69.472656 420.339844 69.453125 C 421.574219 69.433594 422.59375 70.933594 422.621094 72.660156 C 422.671875 75.945312 420.476562 78.640625 420.476562 78.640625 Z M 420.476562 78.640625 "/>
<path style=" stroke:none;fill-rule:nonzero;fill:rgb(0%,0%,0%);fill-opacity:1;" d="M 420.960938 84.101562 C 420.960938 84.101562 421.296875 81.078125 423.375 79.15625 C 424.128906 78.460938 426.035156 77.914062 426.78125 78.722656 C 427.527344 79.53125 427.171875 81.070312 426.078125 82.082031 C 423.996094 84.003906 420.960938 84.101562 420.960938 84.101562 Z M 420.960938 84.101562 "/>
<path style=" stroke:none;fill-rule:nonzero;fill:rgb(0%,0%,0%);fill-opacity:1;" d="M 420.277344 90.460938 C 420.277344 90.460938 421.8125 87.839844 424.496094 86.9375 C 425.46875 86.609375 427.429688 86.886719 427.78125 87.929688 C 428.132812 88.96875 427.179688 90.230469 425.769531 90.710938 C 423.085938 91.613281 420.277344 90.460938 420.277344 90.460938 Z M 420.277344 90.460938 "/>
<path style=" stroke:none;fill-rule:nonzero;fill:rgb(0%,0%,0%);fill-opacity:1;" d="M 420.875 84.253906 C 419.050781 84.203125 417.273438 83.648438 415.742188 82.648438 C 414.902344 82.0625 413.867188 80.449219 414.386719 79.714844 C 414.898438 78.976562 416.386719 79.125 417.605469 79.980469 C 419.070312 81.074219 420.203125 82.554688 420.875 84.253906 Z M 420.875 84.253906 "/>
<path style=" stroke:none;fill-rule:nonzero;fill:rgb(0%,0%,0%);fill-opacity:1;" d="M 420.683594 90.496094 C 418.84375 90.5 417.042969 89.96875 415.496094 88.96875 C 414.65625 88.382812 413.644531 86.734375 414.191406 85.953125 C 414.734375 85.175781 416.246094 85.292969 417.464844 86.144531 C 418.933594 87.253906 420.050781 88.765625 420.683594 90.496094 Z M 420.683594 90.496094 "/>
<path style=" stroke:none;fill-rule:nonzero;fill:rgb(0%,0%,0%);fill-opacity:1;" d="M 418.847656 98.910156 C 418.847656 98.910156 416.425781 99.316406 414.65625 98.078125 C 414.015625 97.628906 413.347656 96.222656 413.890625 95.441406 C 414.4375 94.664062 415.695312 94.601562 416.628906 95.253906 C 418.398438 96.492188 418.847656 98.910156 418.847656 98.910156 Z M 418.847656 98.910156 "/>
<path style=" stroke:none;fill-rule:nonzero;fill:rgb(0%,0%,0%);fill-opacity:1;" d="M 419.191406 98.945312 C 419.875 97.613281 420.9375 96.511719 422.242188 95.773438 C 422.980469 95.394531 424.550781 95.304688 424.910156 96.007812 C 425.269531 96.707031 424.621094 97.757812 423.542969 98.3125 C 422.1875 98.945312 420.671875 99.164062 419.191406 98.945312 Z M 419.191406 98.945312 "/>
<path style=" stroke:none;fill-rule:nonzero;fill:rgb(0%,0%,0%);fill-opacity:1;" d="M 419 133.671875 C 419.378906 133.832031 419.789062 133.90625 420.203125 133.894531 L 420.15625 133.320312 L 420.179688 133.605469 L 420.15625 133.320312 C 420.101562 133.324219 418.800781 133.398438 417.554688 131.898438 C 416.15625 130.214844 415.40625 127.304688 415.328125 123.25 C 415.222656 117.6875 416.402344 110.113281 418.84375 100.738281 C 421.679688 89.847656 421.167969 83.734375 420.828125 79.691406 C 420.742188 78.65625 420.667969 77.761719 420.671875 77 L 420.097656 76.992188 C 420.089844 77.78125 420.167969 78.6875 420.253906 79.742188 C 420.589844 83.746094 421.097656 89.796875 418.289062 100.589844 C 412.855469 121.46875 414.660156 129.351562 417.132812 132.292969 C 417.625 132.90625 418.269531 133.378906 419 133.671875 Z M 419 133.671875 "/>
<path style=" stroke:none;fill-rule:nonzero;fill:rgb(0%,0%,0%);fill-opacity:1;" d="M 404.101562 122.496094 C 393.453125 140.691406 392.460938 162.96875 401.445312 182.042969 C 422.476562 180.632812 441.449219 168.90625 452.121094 150.71875 C 462.796875 132.535156 463.789062 110.238281 454.777344 91.175781 C 433.753906 92.609375 414.792969 104.328125 404.101562 122.496094 Z M 404.101562 122.496094 "/>
<path style=" stroke:none;fill-rule:nonzero;fill:rgb(0%,0%,0%);fill-opacity:1;" d="M 402.671875 178.125 L 449.789062 97.875 L 450.796875 98.46875 L 403.683594 178.71875 Z M 402.671875 178.125 "/>
<path style=" stroke:none;fill-rule:nonzero;fill:rgb(0%,0%,0%);fill-opacity:1;" d="M 440.5625 114.207031 L 456.082031 111.332031 L 456.292969 112.484375 L 440.777344 115.359375 Z M 440.5625 114.207031 "/>
<path style=" stroke:none;fill-rule:nonzero;fill:rgb(0%,0%,0%);fill-opacity:1;" d="M 432.527344 127.890625 L 451.660156 124.347656 L 451.871094 125.5 L 432.742188 129.042969 Z M 432.527344 127.890625 "/>
<path style=" stroke:none;fill-rule:nonzero;fill:rgb(0%,0%,0%);fill-opacity:1;" d="M 424.5 141.578125 L 456.480469 135.652344 L 456.691406 136.808594 L 424.714844 142.730469 Z M 424.5 141.578125 "/>
<path style=" stroke:none;fill-rule:nonzero;fill:rgb(0%,0%,0%);fill-opacity:1;" d="M 416.464844 155.25 L 447.585938 149.515625 L 447.796875 150.667969 L 416.675781 156.40625 Z M 416.464844 155.25 "/>
<path style=" stroke:none;fill-rule:nonzero;fill:rgb(0%,0%,0%);fill-opacity:1;" d="M 408.433594 168.9375 L 425.761719 165.742188 L 425.972656 166.898438 L 408.644531 170.089844 Z M 408.433594 168.9375 "/>
<path style=" stroke:none;fill-rule:nonzero;fill:rgb(0%,0%,0%);fill-opacity:1;" d="M 435.785156 98.214844 L 436.898438 97.835938 L 441.953125 112.800781 L 440.84375 113.175781 Z M 435.785156 98.214844 "/>
<path style=" stroke:none;fill-rule:nonzero;fill:rgb(0%,0%,0%);fill-opacity:1;" d="M 424.925781 103.53125 L 426.039062 103.15625 L 433.921875 126.484375 L 432.8125 126.859375 Z M 424.925781 103.53125 "/>
<path style=" stroke:none;fill-rule:nonzero;fill:rgb(0%,0%,0%);fill-opacity:1;" d="M 414.914062 111.34375 L 416.023438 110.964844 L 425.890625 140.171875 L 424.78125 140.546875 Z M 414.914062 111.34375 "/>
<path style=" stroke:none;fill-rule:nonzero;fill:rgb(0%,0%,0%);fill-opacity:1;" d="M 406.609375 124.234375 L 407.722656 123.859375 L 417.859375 153.851562 L 416.75 154.230469 Z M 406.609375 124.234375 "/>
<path style=" stroke:none;fill-rule:nonzero;fill:rgb(0%,0%,0%);fill-opacity:1;" d="M 400.007812 142.148438 L 401.117188 141.773438 L 409.828125 167.539062 L 408.714844 167.914062 Z M 400.007812 142.148438 "/>
<path style=" stroke:none;fill-rule:nonzero;fill:rgb(0%,0%,0%);fill-opacity:1;" d="M 444.917969 151.394531 C 430.835938 161.855469 422.8125 178.597656 423.484375 196.136719 C 440.050781 201.921875 458.402344 199.132812 472.503906 188.683594 C 486.605469 178.238281 494.632812 161.488281 493.941406 143.941406 C 477.375 138.179688 459.03125 140.96875 444.917969 151.394531 Z M 444.917969 151.394531 "/>
<path style=" stroke:none;fill-rule:nonzero;fill:rgb(0%,0%,0%);fill-opacity:1;" d="M 425.699219 193.535156 L 487.941406 147.449219 L 488.519531 148.234375 L 426.277344 194.320312 Z M 425.699219 193.535156 "/>
<path style=" stroke:none;fill-rule:nonzero;fill:rgb(0%,0%,0%);fill-opacity:1;" d="M 475.335938 157.894531 L 475.546875 156.941406 L 488.371094 159.808594 L 488.160156 160.761719 Z M 475.335938 157.894531 "/>
<path style=" stroke:none;fill-rule:nonzero;fill:rgb(0%,0%,0%);fill-opacity:1;" d="M 464.726562 165.753906 L 464.941406 164.800781 L 480.742188 168.335938 L 480.53125 169.289062 Z M 464.726562 165.753906 "/>
<path style=" stroke:none;fill-rule:nonzero;fill:rgb(0%,0%,0%);fill-opacity:1;" d="M 454.113281 173.617188 L 454.328125 172.664062 L 480.75 178.570312 L 480.539062 179.523438 Z M 454.113281 173.617188 "/>
<path style=" stroke:none;fill-rule:nonzero;fill:rgb(0%,0%,0%);fill-opacity:1;" d="M 443.503906 181.476562 L 443.71875 180.523438 L 469.421875 186.273438 L 469.210938 187.226562 Z M 443.503906 181.476562 "/>
<path style=" stroke:none;fill-rule:nonzero;fill:rgb(0%,0%,0%);fill-opacity:1;" d="M 432.894531 189.335938 L 433.105469 188.382812 L 447.417969 191.585938 L 447.207031 192.539062 Z M 432.894531 189.335938 "/>
<path style=" stroke:none;fill-rule:nonzero;fill:rgb(0%,0%,0%);fill-opacity:1;" d="M 476.101562 156.246094 L 477.101562 143.136719 L 478.074219 143.210938 L 477.074219 156.320312 Z M 476.101562 156.246094 "/>
<path style=" stroke:none;fill-rule:nonzero;fill:rgb(0%,0%,0%);fill-opacity:1;" d="M 465.492188 164.105469 L 467.050781 143.667969 L 468.023438 143.742188 L 466.464844 164.179688 Z M 465.492188 164.105469 "/>
<path style=" stroke:none;fill-rule:nonzero;fill:rgb(0%,0%,0%);fill-opacity:1;" d="M 454.878906 171.96875 L 456.832031 146.378906 L 457.808594 146.453125 L 455.851562 172.042969 Z M 454.878906 171.96875 "/>
<path style=" stroke:none;fill-rule:nonzero;fill:rgb(0%,0%,0%);fill-opacity:1;" d="M 444.269531 179.828125 L 446.277344 153.542969 L 447.25 153.617188 L 445.242188 179.902344 Z M 444.269531 179.828125 "/>
<path style=" stroke:none;fill-rule:nonzero;fill:rgb(0%,0%,0%);fill-opacity:1;" d="M 433.660156 187.6875 L 435.382812 165.109375 L 436.355469 165.183594 L 434.632812 187.761719 Z M 433.660156 187.6875 "/>
<path style=" stroke:none;fill-rule:nonzero;fill:rgb(0%,0%,0%);fill-opacity:1;" d="M 322.746094 171.433594 C 310.730469 163.410156 321.265625 162.425781 333.414062 164.003906 C 328.222656 158.632812 332.539062 154.660156 347.808594 151.519531 C 354.664062 150.113281 362.40625 152.371094 369.753906 156.242188 C 377.152344 147.917969 386.207031 142.726562 395.066406 147.273438 C 402.390625 151.035156 407.621094 155.125 410.660156 159.171875 C 413.171875 158.71875 415.863281 158.335938 418.730469 158.027344 C 424.96875 157.359375 429.261719 159.015625 432.074219 162.023438 C 444.699219 158.082031 457.132812 156.402344 463.59375 161.027344 C 474.828125 169.070312 475.609375 174.800781 466.800781 179.269531 C 478.898438 181.109375 487.566406 185.332031 470.59375 190.75 C 485.195312 191.339844 495.316406 193.800781 488.128906 199.8125 C 472.113281 213.214844 407.058594 207.660156 359.820312 194.714844 C 329.539062 189.628906 304.832031 182.078125 301.105469 173.796875 C 298.359375 167.699219 309.101562 168.347656 322.746094 171.433594 Z M 322.746094 171.433594 "/>
<path style=" stroke:none;fill-rule:nonzero;fill:rgb(0%,0%,0%);fill-opacity:1;" d="M 126.945312 44.125 C 126.941406 50.972656 121.394531 56.527344 114.554688 56.523438 C 107.710938 56.523438 102.164062 50.972656 102.164062 44.125 C 102.164062 37.277344 107.710938 31.726562 114.550781 31.726562 C 121.394531 31.726562 126.945312 37.277344 126.945312 44.125 Z M 126.945312 44.125 "/>
<path style=" stroke:none;fill-rule:nonzero;fill:rgb(0%,0%,0%);fill-opacity:1;" d="M 110.207031 38.949219 L 110.207031 45.917969 C 109.289062 45.554688 108.242188 45.832031 107.621094 46.605469 C 107.003906 47.375 106.960938 48.460938 107.519531 49.277344 C 108.074219 50.097656 109.097656 50.457031 110.042969 50.164062 C 110.984375 49.875 111.628906 49 111.628906 48.011719 L 111.628906 42.285156 L 117.910156 41.027344 L 117.910156 44.378906 C 117.214844 44.101562 116.429688 44.1875 115.8125 44.605469 C 115.195312 45.027344 114.828125 45.722656 114.828125 46.46875 C 114.828125 47.714844 115.835938 48.722656 117.078125 48.722656 C 118.324219 48.722656 119.332031 47.714844 119.332031 46.46875 L 119.332031 37.125 Z M 110.207031 38.949219 "/>
<path style=" stroke:none;fill-rule:nonzero;fill:rgb(0%,0%,0%);fill-opacity:1;" d="M 139.628906 37.921875 L 190.695312 37.921875 L 190.695312 41.675781 L 139.628906 41.675781 Z M 139.628906 37.921875 "/>
<path style=" stroke:none;fill-rule:nonzero;fill:rgb(0%,0%,0%);fill-opacity:1;" d="M 139.628906 46.1875 L 248.515625 46.1875 L 248.515625 49.945312 L 139.628906 49.945312 Z M 139.628906 46.1875 "/>
<path style=" stroke:none;fill-rule:nonzero;fill:rgb(0%,0%,0%);fill-opacity:1;" d="M 499.683594 209.355469 C 501.425781 206.675781 499.257812 204.394531 490.984375 203.183594 C 482.726562 202.058594 474.332031 202.46875 466.222656 204.402344 C 482.96875 196.28125 502.488281 184.882812 484.664062 183.5625 C 479.109375 183.152344 470.5625 185.84375 461.058594 190.050781 C 471.660156 181.414062 477.492188 174.316406 471.070312 173 C 465.105469 171.773438 452.945312 178.796875 440 188.121094 C 447.375 180.308594 451.648438 173.488281 448.335938 170.273438 C 445.628906 167.648438 439.863281 170.660156 433.226562 176.242188 C 433.523438 171.335938 431.464844 168.371094 426.761719 168.964844 C 422.335938 169.527344 418.753906 175.207031 416.195312 182.023438 C 411.949219 171.453125 400.742188 164.988281 389.433594 168.199219 C 376.148438 171.964844 386.820312 197.308594 392.765625 209.355469 Z M 499.683594 209.355469 "/>
<path style=" stroke:none;fill-rule:nonzero;fill:rgb(0%,0%,0%);fill-opacity:1;" d="M 443.339844 197.101562 L 442.722656 196.972656 C 453.171875 145.722656 474.035156 123.878906 474.242188 123.664062 L 474.695312 124.105469 C 474.488281 124.320312 453.75 146.050781 443.339844 197.101562 Z M 443.339844 197.101562 "/>
<path style=" stroke:none;fill-rule:nonzero;fill:rgb(0%,0%,0%);fill-opacity:1;" d="M 439.007812 191.804688 C 438.769531 161.617188 451.582031 134.5 451.710938 134.226562 L 452.28125 134.5 C 452.152344 134.769531 439.402344 161.761719 439.640625 191.800781 Z M 439.007812 191.804688 "/>
<path style=" stroke:none;fill-rule:nonzero;fill:rgb(0%,0%,0%);fill-opacity:1;" d="M 450.558594 193.617188 C 450.5 179.101562 455.785156 169.433594 460.230469 163.875 C 465.050781 157.847656 469.964844 155.21875 470.015625 155.191406 L 470.308594 155.753906 C 470.117188 155.855469 451.082031 166.222656 451.191406 193.617188 Z M 450.558594 193.617188 "/>
<path style=" stroke:none;fill-rule:nonzero;fill:rgb(0%,0%,0%);fill-opacity:1;" d="M 476.921875 119.648438 C 481.300781 122.183594 484.019531 125.679688 482.992188 127.457031 C 481.964844 129.234375 477.582031 128.617188 473.199219 126.082031 C 468.816406 123.542969 466.101562 120.046875 467.125 118.273438 C 468.15625 116.496094 472.539062 117.113281 476.921875 119.648438 Z M 476.921875 119.648438 "/>
<path style=" stroke:none;fill-rule:nonzero;fill:rgb(0%,0%,0%);fill-opacity:1;" d="M 475.648438 121.84375 C 477.042969 122.648438 477.90625 123.757812 477.578125 124.324219 C 477.25 124.886719 475.863281 124.691406 474.46875 123.886719 C 473.078125 123.078125 472.214844 121.96875 472.539062 121.40625 C 472.867188 120.84375 474.257812 121.039062 475.648438 121.84375 Z M 475.648438 121.84375 "/>
<path style=" stroke:none;fill-rule:nonzero;fill:rgb(0%,0%,0%);fill-opacity:1;" d="M 453.015625 132.601562 C 454.839844 133.65625 455.972656 135.113281 455.546875 135.851562 C 455.121094 136.589844 453.292969 136.332031 451.46875 135.277344 C 449.644531 134.222656 448.511719 132.765625 448.941406 132.027344 C 449.367188 131.289062 451.191406 131.546875 453.015625 132.601562 Z M 453.015625 132.601562 "/>
<path style=" stroke:none;fill-rule:nonzero;fill:rgb(0%,0%,0%);fill-opacity:1;" d="M 452.488281 133.515625 C 453.066406 133.847656 453.425781 134.3125 453.292969 134.546875 C 453.15625 134.78125 452.578125 134.699219 451.996094 134.363281 C 451.417969 134.03125 451.058594 133.570312 451.191406 133.332031 C 451.328125 133.097656 451.910156 133.179688 452.488281 133.515625 Z M 452.488281 133.515625 "/>
<path style=" stroke:none;fill-rule:nonzero;fill:rgb(0%,0%,0%);fill-opacity:1;" d="M 471.574219 154.066406 C 473.492188 155.996094 474.410156 158.1875 473.632812 158.964844 C 472.851562 159.742188 470.664062 158.808594 468.746094 156.878906 C 466.832031 154.949219 465.914062 152.757812 466.691406 151.980469 C 467.476562 151.203125 469.660156 152.136719 471.574219 154.066406 Z M 471.574219 154.066406 "/>
<path style=" stroke:none;fill-rule:nonzero;fill:rgb(0%,0%,0%);fill-opacity:1;" d="M 470.609375 155.027344 C 471.21875 155.640625 471.511719 156.335938 471.261719 156.582031 C 471.015625 156.828125 470.320312 156.53125 469.710938 155.917969 C 469.105469 155.308594 468.8125 154.609375 469.058594 154.363281 C 469.308594 154.117188 470 154.414062 470.609375 155.027344 Z M 470.609375 155.027344 "/>
<path style=" stroke:none;fill-rule:nonzero;fill:rgb(0%,0%,0%);fill-opacity:1;" d="M 347.851562 80.257812 C 347.433594 79.339844 346.652344 78.636719 345.691406 78.324219 C 343.0625 77.582031 339.898438 80.648438 338.617188 85.179688 C 337.34375 89.703125 338.4375 93.976562 341.066406 94.71875 C 342.101562 94.960938 343.191406 94.742188 344.050781 94.117188 C 344.363281 93.039062 344.675781 91.953125 344.984375 90.855469 C 346.007812 87.226562 346.964844 83.679688 347.851562 80.257812 Z M 347.851562 80.257812 "/>
<path style=" stroke:none;fill-rule:nonzero;fill:rgb(0%,0%,0%);fill-opacity:1;" d="M 396.441406 5.261719 C 403.210938 12.035156 403.210938 23.015625 396.441406 29.789062 C 389.675781 36.5625 378.699219 36.5625 371.933594 29.789062 C 365.164062 23.015625 365.164062 12.035156 371.933594 5.261719 C 378.699219 -1.511719 389.675781 -1.511719 396.441406 5.261719 Z M 396.441406 5.261719 "/>
<path style=" stroke:none;fill-rule:nonzero;fill:rgb(0%,0%,0%);fill-opacity:1;" d="M 391.8125 20.816406 C 391.90625 21.648438 391.691406 22.484375 391.203125 23.167969 C 391.167969 25.128906 389.945312 26.515625 387.242188 26.515625 C 386.996094 26.515625 386.714844 26.515625 386.460938 26.515625 C 382.855469 26.515625 381.785156 25.148438 380.222656 25.113281 C 380.09375 25.605469 379.644531 25.953125 379.136719 25.953125 L 376.890625 25.953125 C 376.269531 25.953125 375.765625 25.449219 375.765625 24.828125 L 375.765625 16.402344 C 375.765625 15.78125 376.269531 15.277344 376.890625 15.277344 L 380.355469 15.277344 C 381.027344 14.683594 381.96875 13.148438 382.765625 12.351562 C 383.246094 11.871094 383.125 8.535156 385.285156 8.535156 C 387.304688 8.535156 388.628906 9.65625 388.628906 12.214844 C 388.628906 12.773438 388.523438 13.328125 388.316406 13.847656 L 389.597656 13.847656 C 391.246094 13.871094 392.582031 15.203125 392.609375 16.851562 C 392.613281 17.46875 392.445312 18.074219 392.128906 18.601562 C 392.285156 19.355469 392.171875 20.136719 391.8125 20.816406 Z M 378.011719 22.863281 C 377.546875 22.863281 377.167969 23.238281 377.167969 23.707031 C 377.167969 24.171875 377.546875 24.546875 378.011719 24.546875 C 378.476562 24.546875 378.855469 24.171875 378.855469 23.707031 C 378.855469 23.238281 378.476562 22.863281 378.011719 22.863281 Z M 390.144531 18.1875 C 390.476562 18.1875 390.925781 17.523438 390.925781 16.863281 C 390.902344 16.136719 390.320312 15.554688 389.597656 15.535156 L 385.949219 15.535156 C 385.949219 14.207031 386.945312 13.589844 386.945312 12.214844 C 386.945312 11.378906 386.945312 10.222656 385.285156 10.222656 C 384.621094 10.886719 384.953125 12.546875 383.957031 13.542969 C 383.027344 14.472656 381.636719 16.964844 380.640625 16.964844 L 380.257812 16.964844 L 380.257812 23.5 C 382.140625 23.5 383.765625 24.828125 386.28125 24.828125 L 387.609375 24.828125 C 388.855469 24.828125 389.742188 24.226562 389.472656 22.515625 C 390.125 22.0625 390.335938 21.195312 389.960938 20.492188 C 390.621094 19.894531 390.699219 18.886719 390.144531 18.1875 Z M 390.144531 18.1875 "/>
<path style=" stroke:none;fill-rule:nonzero;fill:rgb(0%,0%,0%);fill-opacity:1;" d="M 309.207031 126.414062 C 306.820312 139.742188 315.917969 152.523438 329.523438 154.960938 C 343.125 157.394531 356.085938 148.566406 358.46875 135.234375 C 360.851562 121.902344 351.753906 109.125 338.148438 106.6875 C 324.546875 104.253906 311.589844 113.085938 309.207031 126.414062 Z M 309.207031 126.414062 "/>
<path style=" stroke:none;fill-rule:nonzero;fill:rgb(0%,0%,0%);fill-opacity:1;" d="M 331.542969 105.292969 C 329.335938 117.636719 337.757812 129.464844 350.347656 131.71875 C 362.941406 133.972656 374.9375 125.796875 377.140625 113.457031 C 379.351562 101.117188 370.929688 89.289062 358.335938 87.035156 C 345.742188 84.78125 333.746094 92.957031 331.542969 105.292969 Z M 331.542969 105.292969 "/>
<path style=" stroke:none;fill-rule:nonzero;fill:rgb(0%,0%,0%);fill-opacity:1;" d="M 342.46875 86.746094 C 340.367188 98.515625 347.59375 109.65625 358.609375 111.628906 C 369.628906 113.597656 380.265625 105.65625 382.371094 93.886719 C 384.476562 82.121094 377.246094 70.976562 366.230469 69.003906 C 355.210938 67.03125 344.574219 74.976562 342.46875 86.746094 Z M 342.46875 86.746094 "/>
<path style=" stroke:none;fill-rule:nonzero;fill:rgb(0%,0%,0%);fill-opacity:1;" d="M 342.160156 115.574219 C 339.480469 130.566406 349.714844 144.945312 365.015625 147.683594 C 380.320312 150.421875 394.898438 140.488281 397.578125 125.496094 C 400.261719 110.5 390.023438 96.121094 374.722656 93.382812 C 359.421875 90.640625 344.839844 100.582031 342.160156 115.574219 Z M 342.160156 115.574219 "/>
<path style=" stroke:none;fill-rule:nonzero;fill:rgb(0%,0%,0%);fill-opacity:1;" d="M 318.859375 124.351562 C 317.066406 134.375 323.90625 143.988281 334.136719 145.820312 C 344.371094 147.648438 354.113281 141.007812 355.910156 130.984375 C 357.699219 120.960938 350.855469 111.347656 340.628906 109.519531 C 330.398438 107.683594 320.648438 114.328125 318.859375 124.351562 Z M 318.859375 124.351562 "/>
<path style=" stroke:none;fill-rule:nonzero;fill:rgb(0%,0%,0%);fill-opacity:1;" d="M 335.265625 108.253906 C 333.472656 118.277344 340.316406 127.890625 350.542969 129.722656 C 360.777344 131.554688 370.519531 124.910156 372.3125 114.886719 C 374.105469 104.863281 367.265625 95.25 357.035156 93.421875 C 346.804688 91.585938 337.054688 98.230469 335.265625 108.253906 Z M 335.265625 108.253906 "/>
<path style=" stroke:none;fill-rule:nonzero;fill:rgb(0%,0%,0%);fill-opacity:1;" d="M 357.195312 76.304688 C 357.539062 76.273438 357.878906 76.257812 358.226562 76.257812 C 358.214844 80.300781 360.503906 85.488281 364.671875 90 C 365.65625 91.054688 366.710938 92.035156 367.835938 92.9375 L 367.179688 96.613281 C 366.207031 102.058594 360.808594 105.644531 355.125 104.625 C 349.441406 103.609375 345.621094 98.371094 346.59375 92.929688 L 348.074219 84.644531 C 351.234375 83.265625 354.554688 80.332031 357.195312 76.304688 Z M 357.195312 76.304688 "/>
<path style=" stroke:none;fill-rule:nonzero;fill:rgb(0%,0%,0%);fill-opacity:1;" d="M 339.328125 118.804688 C 339.058594 117.183594 337.5 114.359375 333.664062 115.753906 C 329.632812 117.222656 326.949219 120.902344 326.425781 131.019531 C 325.949219 139.066406 324.546875 147.027344 322.242188 154.75 C 320.675781 160.332031 327.820312 171.148438 331.832031 164.519531 C 335.84375 157.886719 338.109375 141.316406 338.457031 136.777344 C 338.804688 132.242188 339.503906 119.851562 339.328125 118.804688 Z M 339.328125 118.804688 "/>
<path style=" stroke:none;fill-rule:nonzero;fill:rgb(0%,0%,0%);fill-opacity:1;" d="M 374.894531 102.582031 C 374.894531 102.582031 366.003906 136.953125 370.011719 158.410156 C 372.847656 173.582031 378.328125 163.316406 382.828125 161.8125 C 382.828125 161.8125 382.566406 159.894531 382.566406 152.828125 C 382.566406 141.117188 382.972656 130.363281 383.960938 123.867188 C 385.53125 113.578125 385.53125 107.117188 383.4375 104.675781 C 381.34375 102.234375 379.601562 100.835938 374.894531 102.582031 Z M 374.894531 102.582031 "/>
<path style=" stroke:none;fill-rule:nonzero;fill:rgb(0%,0%,0%);fill-opacity:1;" d="M 399.691406 31.398438 L 420.90625 27.097656 C 423.691406 26.53125 426.40625 28.332031 426.972656 31.121094 L 429.335938 42.8125 C 429.902344 45.601562 428.101562 48.316406 425.316406 48.882812 L 404.101562 53.183594 C 401.316406 53.746094 398.597656 51.945312 398.035156 49.160156 L 395.667969 37.464844 C 395.105469 34.679688 396.902344 31.960938 399.691406 31.398438 Z M 399.691406 31.398438 "/>
<path style=" stroke:none;fill-rule:nonzero;fill:rgb(0%,0%,0%);fill-opacity:1;" d="M 408.9375 36.558594 L 410.609375 44.828125 L 415.234375 39.585938 Z M 408.9375 36.558594 "/>
<path style=" stroke:none;fill-rule:nonzero;fill:rgb(0%,0%,0%);fill-opacity:1;" d="M 380.996094 157.710938 C 380.996094 157.710938 381.34375 154.925781 385.183594 170.800781 C 389.015625 186.679688 391.460938 214.066406 395.46875 219.300781 C 399.476562 224.535156 400.875 221.394531 400.175781 222.09375 C 397.699219 224.574219 396.6875 226.976562 394.074219 226.453125 C 391.460938 225.929688 385.703125 215.464844 379.773438 197.320312 C 373.847656 179.171875 370.1875 166.789062 371.234375 161.203125 C 372.28125 155.621094 380.472656 156.320312 380.996094 157.710938 Z M 380.996094 157.710938 "/>
<path style=" stroke:none;fill-rule:nonzero;fill:rgb(0%,0%,0%);fill-opacity:1;" d="M 347.441406 116.019531 C 347.441406 116.019531 361.117188 111.375 363 110.296875 C 364.890625 109.21875 357.925781 110.296875 363.726562 98.871094 C 363.796875 98.730469 353.199219 92.613281 352.253906 92.429688 C 351.3125 92.25 350.367188 94.773438 350.367188 94.773438 C 350.367188 94.773438 352.628906 105.632812 347.441406 116.019531 Z M 347.441406 116.019531 "/>
<path style=" stroke:none;fill-rule:nonzero;fill:rgb(0%,0%,0%);fill-opacity:1;" d="M 388.496094 218.953125 C 388.496094 218.953125 391.109375 225.40625 392.679688 225.929688 C 394.246094 226.453125 398.429688 225.929688 401.046875 225.058594 C 403.660156 224.1875 405.578125 222.964844 406.972656 222.789062 C 408.367188 222.617188 416.214844 225.125 418.480469 225.230469 C 420.863281 225.351562 421.558594 225.351562 422.839844 224.886719 C 424.117188 224.421875 423.652344 223.488281 423.652344 223.488281 C 423.652344 223.488281 422.546875 223.375 419.121094 222.671875 C 414.296875 221.695312 407.613281 218.378906 405.871094 217.4375 C 402.847656 215.8125 402.628906 215.574219 400.875 216.277344 C 398.527344 217.125 396.117188 217.785156 393.667969 218.253906 C 391.96875 218.652344 390.238281 218.886719 388.496094 218.953125 Z M 388.496094 218.953125 "/>
<path style=" stroke:none;fill-rule:nonzero;fill:rgb(0%,0%,0%);fill-opacity:1;" d="M 390.992188 223.839844 C 390.992188 223.839844 392.089844 226.941406 396.6875 228.605469 C 400.058594 229.828125 400.625 229.597656 402.382812 229.535156 C 403.164062 229.542969 403.945312 229.464844 404.707031 229.304688 C 404.707031 229.304688 404.996094 227.792969 402.847656 227.558594 C 401.640625 227.429688 399.363281 225.933594 400.40625 225.234375 C 401.453125 224.535156 390.992188 223.839844 390.992188 223.839844 Z M 390.992188 223.839844 "/>
<path style=" stroke:none;fill-rule:nonzero;fill:rgb(0%,0%,0%);fill-opacity:1;" d="M 336.886719 192.785156 C 336.886719 192.785156 333.402344 179.519531 333.230469 172.019531 C 333.054688 164.519531 333.925781 151.257812 333.75 150.734375 C 333.578125 150.210938 328.691406 146.894531 329.042969 143.40625 C 329.390625 139.917969 333.925781 130.671875 334.796875 127.882812 C 335.667969 125.089844 335.667969 115.316406 335.667969 115.316406 C 341.570312 116.382812 347.65625 115.84375 353.277344 113.75 C 362.863281 110.257812 374.894531 102.582031 374.894531 102.582031 C 374.894531 102.582031 381.34375 103.28125 376.464844 132.414062 C 371.582031 161.554688 370.078125 163.285156 369.839844 171.847656 C 369.492188 184.410156 377.164062 198.539062 377.859375 209.183594 C 378.554688 219.824219 339.328125 196.617188 336.886719 192.785156 Z M 336.886719 192.785156 "/>
<path style=" stroke:none;fill-rule:nonzero;fill:rgb(0%,0%,0%);fill-opacity:1;" d="M 343.339844 191.210938 C 329.59375 185.671875 320.675781 186.152344 287.898438 189.640625 C 280.386719 190.4375 265.128906 191.480469 257.5625 195.75 C 250.765625 199.589844 248.855469 209.632812 282.886719 216.34375 C 313.972656 222.476562 354.101562 225.378906 364.433594 217.035156 C 374.769531 208.6875 356.765625 196.617188 343.339844 191.210938 Z M 343.339844 191.210938 "/>
<path style=" stroke:none;fill-rule:nonzero;fill:rgb(0%,0%,0%);fill-opacity:1;" d="M 336.1875 229.773438 C 336.1875 229.773438 337.585938 230.644531 338.28125 230.117188 C 338.980469 229.597656 340.898438 227.324219 344.035156 229.074219 C 347.175781 230.816406 348.046875 232.910156 351.007812 233.085938 C 353.972656 233.257812 361.296875 232.039062 363.386719 233.78125 C 365.480469 235.527344 368.792969 241.980469 367.921875 246.519531 C 367.046875 251.054688 365.65625 251.578125 364.261719 249.484375 C 362.863281 247.390625 361.644531 246.167969 360.949219 245.820312 C 360.25 245.472656 352.40625 242.507812 349.789062 241.109375 C 347.414062 239.863281 344.972656 238.753906 342.46875 237.792969 C 341.417969 237.445312 335.667969 236.398438 335.144531 236.398438 C 334.621094 236.398438 336.1875 229.773438 336.1875 229.773438 Z M 336.1875 229.773438 "/>
<path style=" stroke:none;fill-rule:nonzero;fill:rgb(0%,0%,0%);fill-opacity:1;" d="M 363.386719 233.78125 C 361.296875 232.039062 353.972656 233.257812 351.007812 233.085938 C 348.046875 232.910156 347.175781 230.816406 344.035156 229.074219 C 341.554688 227.691406 339.828125 228.5 338.261719 230.066406 C 338.566406 229.945312 338.886719 229.875 339.210938 229.859375 C 340.9375 230.066406 344.695312 233.078125 347.4375 234.222656 C 350.398438 235.457031 355.828125 236.445312 358.167969 238.046875 C 359.660156 239.070312 360.390625 242.617188 360.558594 245.648438 C 360.738281 245.726562 360.882812 245.785156 360.949219 245.820312 C 361.644531 246.167969 362.863281 247.390625 364.261719 249.484375 C 365.652344 251.578125 367.046875 251.054688 367.921875 246.519531 C 368.792969 241.980469 365.480469 235.527344 363.386719 233.78125 Z M 363.386719 233.78125 "/>
<path style=" stroke:none;fill-rule:nonzero;fill:rgb(0%,0%,0%);fill-opacity:1;" d="M 336.886719 237.269531 C 336.886719 237.269531 286.78125 227.1875 275.519531 222.789062 C 264.257812 218.390625 246.578125 215.464844 251.144531 203.199219 C 255.285156 192.074219 267.769531 190.773438 284.1875 197.648438 C 300.601562 204.527344 300.800781 204.996094 313.003906 212.5 C 328.550781 222.054688 337.585938 230.292969 337.585938 230.292969 Z M 336.886719 237.269531 "/>
<path style=" stroke:none;fill-rule:nonzero;fill:rgb(0%,0%,0%);fill-opacity:1;" d="M 362.28125 150.859375 L 363.726562 152.308594 L 357.777344 161.96875 L 348.699219 162.226562 L 347.285156 160.371094 L 352.628906 152.953125 Z M 362.28125 150.859375 "/>
<path style=" stroke:none;fill-rule:nonzero;fill:rgb(0%,0%,0%);fill-opacity:1;" d="M 332.886719 159.070312 L 345.269531 155.773438 L 349.769531 156.191406 L 347.808594 159.417969 L 351.839844 161.871094 L 356.535156 161.410156 L 359.171875 159.257812 L 359.382812 162.367188 C 358.914062 163.300781 358.203125 164.089844 357.324219 164.65625 C 355.898438 165.554688 350.363281 171.03125 350.363281 171.03125 L 347.292969 169.714844 L 340.417969 166.308594 L 335.03125 168.445312 Z M 332.886719 159.070312 "/>
<path style=" stroke:none;fill-rule:nonzero;fill:rgb(0%,0%,0%);fill-opacity:1;" d="M 273.949219 224.886719 C 273.257812 225.582031 273.117188 226.652344 273.601562 227.5 C 274.472656 228.898438 276.214844 229.945312 275.871094 231.691406 C 275.519531 233.433594 275.171875 233.78125 273.257812 235.175781 C 271.335938 236.574219 268.023438 238.316406 266.101562 242.332031 C 264.1875 246.34375 261.574219 250.179688 256.867188 250.882812 C 252.15625 251.574219 248.496094 251.226562 246.230469 250.179688 C 243.964844 249.132812 245.1875 247.914062 246.753906 247.214844 C 249.648438 245.957031 252.128906 243.898438 253.902344 241.285156 C 256.167969 237.792969 258.609375 234.828125 260.175781 232.039062 C 261.746094 229.246094 263.667969 226.28125 265.234375 223.488281 C 266.804688 220.695312 273.949219 222.964844 273.949219 224.886719 Z M 273.949219 224.886719 "/>
<path style=" stroke:none;fill-rule:nonzero;fill:rgb(0%,0%,0%);fill-opacity:1;" d="M 267.585938 234.925781 C 264.480469 238.101562 262.789062 241.628906 258.347656 243.472656 C 256.042969 244.425781 253.042969 244.46875 251.871094 243.75 C 250.382812 245.199219 248.648438 246.371094 246.753906 247.214844 C 245.1875 247.914062 243.964844 249.136719 246.230469 250.179688 C 248.496094 251.226562 252.15625 251.578125 256.867188 250.882812 C 261.574219 250.179688 264.1875 246.34375 266.101562 242.332031 C 268.023438 238.320312 271.335938 236.574219 273.257812 235.175781 C 275.171875 233.78125 275.519531 233.433594 275.871094 231.691406 C 276.15625 230.246094 275.015625 229.28125 274.121094 228.195312 C 273.03125 229.898438 270.566406 231.875 267.585938 234.925781 Z M 267.585938 234.925781 "/>
<path style=" stroke:none;fill-rule:nonzero;fill:rgb(0%,0%,0%);fill-opacity:1;" d="M 376.464844 200.460938 C 376.464844 200.460938 357.984375 173.242188 342.992188 164.519531 C 327.996094 155.792969 289.992188 124.042969 317.1875 179.171875 C 331.210938 207.605469 340.898438 224.886719 353.800781 228.023438 C 366.699219 231.167969 390.0625 228.023438 376.464844 200.460938 Z M 376.464844 200.460938 "/>
<path style=" stroke:none;fill-rule:nonzero;fill:rgb(0%,0%,0%);fill-opacity:1;" d="M 261.050781 226.28125 C 261.050781 226.28125 284.414062 180.570312 291.035156 170.449219 C 297.660156 160.332031 309.167969 140.09375 314.050781 150.910156 C 318.929688 161.726562 322.769531 169.75 312.65625 184.410156 C 302.542969 199.0625 302.542969 199.0625 289.640625 211.976562 C 276.742188 224.886719 272.554688 227.324219 272.554688 227.324219 Z M 261.050781 226.28125 "/>
<path style=" stroke:none;fill-rule:nonzero;fill:rgb(0%,0%,0%);fill-opacity:1;" d="M 370.214844 99.886719 C 370.648438 100.800781 371.445312 101.488281 372.410156 101.78125 C 375.050781 102.480469 378.164062 99.355469 379.359375 94.808594 C 380.558594 90.257812 379.390625 86.003906 376.746094 85.308594 C 375.707031 85.085938 374.621094 85.324219 373.773438 85.964844 C 373.480469 87.046875 373.191406 88.136719 372.898438 89.242188 C 371.9375 92.886719 371.042969 96.449219 370.214844 99.886719 Z M 370.214844 99.886719 "/>
<path style=" stroke:none;fill-rule:nonzero;fill:rgb(0%,0%,0%);fill-opacity:1;" d="M 379.359375 94.808594 C 380.128906 91.890625 379.917969 89.101562 378.976562 87.289062 C 378.703125 88.308594 378.429688 89.332031 378.152344 90.367188 C 377.195312 94.015625 376.296875 97.578125 375.472656 101.015625 C 375.480469 101.027344 375.488281 101.039062 375.496094 101.050781 C 377.140625 99.898438 378.617188 97.628906 379.359375 94.808594 Z M 379.359375 94.808594 "/>
<path style=" stroke:none;fill-rule:nonzero;fill:rgb(0%,0%,0%);fill-opacity:1;" d="M 375.550781 90.460938 L 373.089844 89.765625 C 374.363281 85.601562 374.074219 81.121094 372.285156 77.152344 C 370.625 73.578125 367.488281 70.90625 363.699219 69.835938 C 356.113281 67.6875 346.941406 73.433594 343.65625 82.382812 L 341.257812 81.5 C 345.046875 71.171875 355.429688 64.835938 364.394531 67.375 C 368.894531 68.640625 372.617188 71.808594 374.589844 76.050781 C 376.648438 80.578125 376.992188 85.699219 375.550781 90.460938 Z M 375.550781 90.460938 "/>
<path style=" stroke:none;fill-rule:nonzero;fill:rgb(0%,0%,0%);fill-opacity:1;" d="M 200.347656 241.136719 C 203.445312 241.167969 206.539062 241.019531 209.621094 240.699219 C 214.90625 240.097656 216.402344 239.085938 216.449219 238.585938 C 216.464844 238.4375 216.363281 237.640625 212.886719 236.515625 C 207.3125 234.71875 203.238281 235.066406 201.402344 237.492188 C 200.660156 238.558594 200.285156 239.839844 200.347656 241.136719 Z M 423.027344 117.574219 C 421.417969 117.574219 417.585938 119.085938 410.941406 124.851562 C 406.992188 128.421875 403.523438 132.484375 400.617188 136.945312 C 404.113281 135.816406 407.429688 134.1875 410.464844 132.117188 C 420.691406 125.390625 424.210938 120.054688 424.03125 118.269531 C 424.023438 118 423.851562 117.757812 423.59375 117.664062 C 423.414062 117.597656 423.21875 117.570312 423.027344 117.574219 Z M 272.578125 280.988281 C 261.214844 281.085938 249.90625 279.386719 239.074219 275.953125 C 223.585938 270.894531 210.289062 261.800781 203.503906 251.625 C 201.128906 248.0625 199.796875 244.703125 199.578125 241.914062 C 187.933594 241.765625 176.355469 240.160156 165.109375 237.136719 C 150.972656 233.210938 132.988281 225.179688 127.597656 209.21875 L 128.339844 208.964844 C 133.621094 224.601562 151.363281 232.503906 165.320312 236.382812 C 176.484375 239.382812 187.984375 240.980469 199.546875 241.128906 C 199.492188 239.660156 199.925781 238.214844 200.777344 237.019531 C 202.828125 234.304688 207.214844 233.859375 213.128906 235.769531 C 216.03125 236.707031 217.335938 237.625 217.230469 238.664062 C 217.101562 239.976562 214.570312 240.925781 209.710938 241.476562 C 206.613281 241.800781 203.496094 241.949219 200.382812 241.921875 C 200.609375 244.566406 201.898438 247.800781 204.15625 251.1875 C 210.847656 261.222656 223.992188 270.199219 239.320312 275.207031 C 259.71875 281.867188 284.082031 281.867188 309.773438 275.214844 C 385.730469 255.539062 459.894531 235.304688 459.949219 222.988281 C 459.960938 220.386719 456.425781 218.113281 449.4375 216.234375 C 415.164062 207.015625 395.558594 192.640625 391.167969 173.507812 C 389.066406 164.34375 390.652344 154.066406 395.753906 143.785156 C 396.722656 141.832031 397.773438 139.96875 398.871094 138.210938 C 394.6875 139.109375 390.882812 138.722656 387.492188 137.046875 C 380.109375 133.398438 376.089844 124.199219 374.015625 117.121094 C 372.644531 112.367188 371.722656 107.492188 371.265625 102.5625 L 372.046875 102.503906 C 372.066406 102.777344 374.15625 129.582031 387.839844 136.34375 C 391.269531 138.039062 395.15625 138.339844 399.472656 137.261719 C 402.519531 132.453125 406.207031 128.078125 410.425781 124.257812 C 416.605469 118.898438 421.765625 116.09375 423.882812 116.933594 C 424.410156 117.136719 424.773438 117.625 424.8125 118.191406 C 425.0625 120.640625 420.816406 126.25 410.898438 132.773438 C 407.554688 135.074219 403.863281 136.820312 399.964844 137.945312 C 398.683594 139.945312 397.515625 142.011719 396.460938 144.132812 C 392.957031 151.1875 389.328125 161.980469 391.933594 173.332031 C 396.253906 192.160156 415.667969 206.339844 449.640625 215.476562 C 457.121094 217.488281 460.75 219.945312 460.734375 222.992188 C 460.675781 235.875 389.386719 255.40625 309.972656 275.972656 C 297.769531 279.214844 285.203125 280.902344 272.578125 280.988281 Z M 272.578125 280.988281 "/>
<path style=" stroke:none;fill-rule:nonzero;fill:rgb(0%,0%,0%);fill-opacity:1;" d="M 111.449219 77.902344 C 117.960938 88.214844 114.886719 101.863281 104.578125 108.378906 C 94.269531 114.894531 80.636719 111.816406 74.121094 101.503906 C 67.609375 91.1875 70.6875 77.542969 80.996094 71.023438 C 91.300781 64.507812 104.9375 67.585938 111.449219 77.902344 Z M 111.449219 77.902344 "/>
<path style=" stroke:none;fill-rule:nonzero;fill:rgb(0%,0%,0%);fill-opacity:1;" d="M 108.773438 83.863281 L 107.179688 85.835938 C 107.023438 85.996094 106.820312 86.097656 106.601562 86.136719 C 106.390625 86.183594 106.171875 86.117188 106.023438 85.960938 C 103.328125 83.945312 100.15625 82.652344 96.820312 82.210938 C 93.601562 81.738281 90.320312 82.089844 87.273438 83.226562 C 84.101562 84.359375 81.273438 86.285156 79.058594 88.824219 C 78.949219 89.007812 78.746094 89.121094 78.53125 89.117188 C 78.3125 89.125 78.089844 89.066406 77.90625 88.945312 L 75.929688 87.351562 C 75.753906 87.203125 75.644531 86.992188 75.628906 86.761719 C 75.613281 86.53125 75.695312 86.304688 75.855469 86.136719 C 78.507812 83.019531 81.9375 80.660156 85.792969 79.296875 C 89.511719 77.910156 93.515625 77.484375 97.441406 78.058594 C 101.5 78.582031 105.34375 80.171875 108.59375 82.660156 C 108.78125 82.792969 108.910156 82.996094 108.945312 83.222656 C 108.980469 83.449219 108.917969 83.683594 108.773438 83.863281 Z M 103.53125 90.472656 L 101.9375 92.445312 C 101.632812 92.761719 101.148438 92.8125 100.785156 92.570312 C 96.007812 89.277344 89.546875 89.964844 85.570312 94.183594 C 85.265625 94.5 84.777344 94.550781 84.414062 94.308594 L 82.441406 92.710938 C 82.253906 92.566406 82.144531 92.34375 82.140625 92.105469 C 82.128906 91.867188 82.207031 91.632812 82.359375 91.445312 C 84.085938 89.519531 86.265625 88.058594 88.699219 87.1875 C 91.117188 86.3125 93.707031 86.039062 96.253906 86.386719 C 98.816406 86.722656 101.253906 87.695312 103.347656 89.21875 C 103.535156 89.367188 103.660156 89.578125 103.703125 89.816406 C 103.746094 90.050781 103.683594 90.289062 103.53125 90.472656 Z M 97.035156 97.746094 C 96.847656 96.167969 95.574219 94.945312 93.996094 94.816406 C 92.414062 94.6875 90.960938 95.691406 90.523438 97.21875 C 90.082031 98.742188 90.777344 100.367188 92.183594 101.097656 C 93.59375 101.832031 95.320312 101.472656 96.316406 100.238281 C 96.890625 99.542969 97.148438 98.640625 97.035156 97.746094 Z M 97.035156 97.746094 "/>
</g>
</svg>
